<?xml version="1.0" encoding="UTF-8"?>
<!DOCTYPE svg PUBLIC "-//W3C//DTD SVG 1.1//EN" "http://www.w3.org/Graphics/SVG/1.1/DTD/svg11.dtd">
<!-- Creator: CorelDRAW -->
<svg xmlns="http://www.w3.org/2000/svg" xml:space="preserve" width="65mm" height="65mm" version="1.1" style="shape-rendering:geometricPrecision; text-rendering:geometricPrecision; image-rendering:optimizeQuality; fill-rule:evenodd; clip-rule:evenodd"
viewBox="0 0 6500 6500"
 xmlns:xlink="http://www.w3.org/1999/xlink"
 xmlns:xodm="http://www.corel.com/coreldraw/odm/2003">
 <defs>
  <style type="text/css">
   <![CDATA[
    .fil0 {fill:white;fill-rule:nonzero}
   ]]>
  </style>
 </defs>
 <g id="Слой_x0020_1">
  <metadata id="CorelCorpID_0Corel-Layer"/>
  <g id="_2422415933328">
   <path class="fil0" d="M5717.75 4388.18l0 -40.4 100.47 0 -100.47 40.4zm-30.94 -381.14l-272.73 0 0 -278.77 196.36 0 76.37 190.01 0 88.76zm0 309.77l-272.73 0 0 -278.8 272.73 0 0 278.8zm0 83.82l-272.73 109.61 0 -162.46 272.73 0 0 52.85zm-303.7 -2252.1l-272.7 0 0 -278.8 34.15 0 238.55 101.78 0 177.02zm0 309.74l-261.94 0c-3.49,-8.36 -7.16,-16.58 -10.76,-24.94l0 -253.83 272.7 0 0 278.77zm0 309.74l-161.68 0c-22.65,-95.75 -52.14,-188.84 -88.02,-278.8l249.7 0 0 278.8zm0 309.77l-113.7 0c-7.2,-94.93 -20.85,-187.99 -40.78,-278.8l154.48 0 0 278.8zm0 309.74l-114.06 0c4.03,-51.93 6.74,-104.17 6.74,-157.09 0,-40.89 -1.58,-81.42 -4.02,-121.67l111.34 0 0 278.76zm0 309.78l-162.7 0c21.69,-90.77 37.43,-183.8 46.28,-278.84l116.42 0 0 278.84zm0 309.74l-263.7 0c37.81,-89.82 69.32,-182.92 93.84,-278.77l169.86 0 0 278.77zm0 309.77l-272.7 0 0 -278.8 272.7 0 0 278.8zm0 205.88l-258.45 103.85 -14.25 0 0 -278.76 272.7 0 0 174.91zm-303.67 -205.88l-124.22 0c45.69,-70.8 87.49,-144.39 124.22,-220.91l0 220.91zm0 309.73l-272.74 0 0 -108.01c45.76,-54.58 88.76,-111.45 128.59,-170.75l144.15 0 0 278.76zm-272.74 127.82l0 -96.84 240.92 0 -240.92 96.84zm-1538.88 453.11c-1090.16,0 -1977.04,-886.92 -1977.04,-1977.04 0,-1090.12 886.88,-1977.07 1977.04,-1977.07 1090.08,0 1977,886.95 1977,1977.07 0,1090.12 -886.92,1977.04 -1977,1977.04zm1507.91 -580.93l-66.75 0c22.86,-23.52 45.05,-47.65 66.75,-72.32l0 72.32zm0 140.31l-2.5 0.98 -71.87 168.45 -198.33 0 0 -124.49c61.46,-48.12 120.23,-99.45 175.69,-154.27l97.01 0 0 109.33zm-225.78 524.4l-46.92 0 0 -323.99 185.14 0 -138.22 323.99zm-46.92 110l0 -79.06 33.73 0 -33.73 79.06zm-30.97 -464.97l-146.65 0c50.34,-31.29 99.38,-64.63 146.65,-100.11l0 100.11zm0 354.97l-272.66 0 0 -282.86c25.08,-13.15 49.74,-26.91 74.15,-41.13l198.51 0 0 323.99zm0 182.64l-51.97 121.88 -220.69 0 0 -273.58 272.66 0 0 151.7zm-155.61 364.8l-117.05 -52.49 0 -159.46 207.5 0 -90.45 211.95zm-148.03 -547.44l-272.73 0 0 -153.88c94.19,-31.12 185.28,-68.97 272.73,-113.07l0 266.95zm0 304.52l-272.73 0 0 -273.58 272.73 0 0 273.58zm0 176.57l-272.73 -122.27 0 -23.33 272.73 0 0 145.6zm-303.7 -481.09l-272.74 0 0 -79.37c93.17,-15.18 184.37,-36.45 272.74,-64.03l0 143.4zm0 304.52l-90.03 0 -182.71 -81.91 0 -191.67 272.74 0 0 273.58zm0 40.35l-20.99 -9.38 20.99 0 0 9.38zm-303.71 -344.87l-272.66 0 0 -53.34c92.5,-0.91 183.51,-7.97 272.66,-21.1l0 74.44zm0 208.71l-272.66 -122.28 0 -55.49 272.66 0 0 177.77zm-303.64 -208.71l-272.69 0 0 -73.13c89.18,12.62 180.2,19.58 272.69,20.04l0 53.09zm0 86.01l-272.69 109.54 0 -164.61 272.69 0 0 55.07zm-303.63 -86.01l-272.7 0 0 -140.47c88.48,27.09 179.53,48.21 272.7,62.93l0 77.54zm0 208l-240.24 96.52 -32.46 0 0 -273.58 272.7 0 0 177.06zm-303.67 -208l-272.77 0 0 -261.76c87.52,43.54 178.61,80.78 272.77,111.3l0 150.46zm0 304.52l-272.77 0 0 -273.58 272.77 0 0 273.58zm-272.77 135.08l0 -104.11 259.12 0 -259.12 104.11zm-303.67 -794.57l0 -92.67c44.13,32.74 89.75,63.57 136.52,92.67l-136.52 0zm272.7 354.97l-272.7 0 0 -323.99 188.38 0c27.7,16.13 55.81,31.57 84.32,46.39l0 277.6zm0 304.52l-270.34 0 -2.36 -5.97 0 -267.61 272.7 0 0 273.58zm0 147.49l-181.68 73.02 -76.17 -189.54 257.85 0 0 116.52zm-576.34 -1116.72l0 -60.6c18.42,20.6 37.33,40.79 56.59,60.6l-56.59 0zm272.66 309.74l-231.66 0 -41 -101.94 0 -176.82 86.86 0c58.52,57.86 120.65,111.87 185.8,162.24l0 116.52zm0 354.97l-89 0 -130.25 -323.99 219.25 0 0 323.99zm0 221.51l-76.58 -190.57 76.58 0 0 190.57zm-576.4 -1195.95l0 -200.7c34.22,69.29 72.46,136.21 114.12,200.7l-114.12 0zm272.77 309.73l-264.76 0 -8.01 -3.38 0 -275.38 134.02 0c42.69,63.57 89.22,124.28 138.75,182.42l0 96.34zm0 130.71l-8.64 -21.41 -183.52 -78.32 192.16 0 0 99.73zm-303.71 -440.44l-272.69 0 0 -278.8 267.3 0c1.76,3.99 3.59,7.9 5.39,11.89l0 266.91zm0 293.15l-272.69 -116.3 0 -145.88 272.69 0 0 262.18zm-303.63 -2461.5l-272.74 0 0 -92.32 272.74 -109.64 0 201.96zm0 309.81l-272.74 0 0 -278.84 272.74 0 0 278.84zm0 309.74l-192.23 0 -80.51 -200.34 0 -78.46 272.74 0 0 278.8zm0 309.77l-67.7 0 -112.08 -278.8 179.78 0 0 278.8zm0 309.74l-92.15 0 76.66 -179.77 -39.79 -98.99 55.28 0 0 278.76zm0 309.78l-224.3 0 118.92 -278.84 105.38 0 0 278.84zm0 309.74l-272.74 0 0 -196.15 35.21 -82.62 237.53 0 0 278.77zm0 309.77l-272.74 0 0 -278.8 272.74 0 0 278.8zm0 163.62l-272.74 -116.35 0 -16.3 272.74 0 0 132.65zm-303.71 -473.39l-52.7 0 52.7 -123.58 0 123.58zm0 309.77l-79.87 0 -88.83 -37.89 102.77 -240.91 65.93 0 0 278.8zm0 34.08l-7.27 -3.11 7.27 0 0 3.11zm0 -2202.43l-137.51 0 -8.5 -21.17 146.01 -58.73 0 79.9zm0 309.81l-13.02 0 -112.04 -278.84 125.06 0 0 278.84zm0 32.35l-0.53 -1.41 0.53 0 0 1.41zm334.65 1237.65l159.7 0c24.52,95.85 56.02,188.95 93.84,278.77l-253.54 0 0 -278.77zm0 -309.81l106.25 0c8.86,95.04 24.59,188.07 46.29,278.84l-152.54 0 0 -278.84zm0 -309.7l101.21 0c-2.44,40.25 -4.02,80.78 -4.02,121.67 0,52.92 2.68,105.16 6.73,157.09l-103.92 0 0 -278.76zm0 -309.78l144.35 0c-19.97,90.81 -33.62,183.87 -40.81,278.8l-103.54 0 0 -278.8zm0 -309.77l239.53 0c-35.88,89.96 -65.33,183.05 -88.02,278.8l-151.51 0 0 -278.8zm0 -309.78l272.69 0.04 0 231.53c-7.05,15.7 -14.25,31.32 -20.92,47.27l-251.77 0 0 -278.84zm0 -245.35l160.09 -64.35 112.6 0 0 278.77 -272.69 -0.04 0 -214.38zm272.69 -109.58l0 14.26 -35.56 0 35.56 -14.26zm30.94 354.97l91.41 0c-33.02,53.48 -63.47,108.58 -91.41,165.24l0 -165.24zm0 -309.74l272.77 0 0 60.93c-58.6,68.79 -112.5,141.57 -161.5,217.84l-111.27 0 0 -278.77zm0 -57.71l272.77 -109.61 0 136.35 -272.77 0 0 -26.74zm303.74 57.71l22.79 0c-7.69,8.29 -15.24,16.72 -22.79,25.19l0 -25.19zm0 -194.52l49.14 -115.25 223.52 0 0 81.14c-78.24,60.43 -151.83,126.5 -220.3,197.66l-52.36 0 0 -163.55zm176.11 -412.93l96.55 0 0 266.74 -210.32 0 113.77 -266.74zm96.55 -226.34l0 195.37 -83.32 0 83.32 -195.37zm30.98 524.02l81.35 0c-27.62,18.45 -54.72,37.53 -81.35,57.29l0 -57.29zm0 -297.68l272.7 0 0 184.93c-48.86,25.4 -96.63,52.63 -143.09,81.81l-129.61 0 0 -266.74zm0 -298.98l9.77 -22.89 262.93 0 0 290.9 -272.7 0 0 -268.01zm141.89 -332.6l23.6 0 107.21 46.89 0 231.84 -249.74 0 118.93 -278.73zm161.78 631.58l272.77 0 0 57.79c-94.16,30.51 -185.25,67.8 -272.77,111.26l0 -169.05zm0 -321.87l272.77 0 0 290.9 -272.77 0 0 -290.9zm0 -249.24l272.77 119.35 0 98.91 -272.77 0 0 -218.26zm303.74 571.11l188.14 0c-63.89,12.91 -126.61,28.93 -188.14,47.77l0 -47.77zm0 -321.87l265.82 0 6.88 3.03 0 287.9 -272.7 -0.03 0 -290.9zm0 -116.35l195.02 85.37 -195.02 0 0 -85.37zm303.64 132.93l272.69 119.34 0 146.34c-59.05,0.31 -117.44,3.35 -175.18,8.67l-97.51 0 0 -274.35zm303.67 119.66l272.66 -108.87 0 263.56 -107.6 0c-54.47,-5.04 -109.46,-7.86 -165.06,-8.39l0 -146.3zm576.37 185.63l0 50.7c-64.7,-20.18 -130.92,-37.08 -198.3,-50.7l198.3 0zm-272.74 -306.81l37.65 -15.06 235.09 0 0 290.93 -272.74 0 0 -275.87zm272.74 -108.9l0 62.86 -157.48 0 157.48 -62.86zm30.97 415.71l272.73 0 0 174.24c-87.45,-44.1 -178.54,-81.95 -272.73,-113.03l0 -61.21zm0 -321.87l272.73 0 0 290.93 -272.73 0 0 -290.93zm0 -106.22l272.73 -108.87 0 184.11 -272.73 0 0 -75.24zm576.37 725.77l0 64.73c-29.81,-22.4 -60.4,-43.95 -91.44,-64.73l91.44 0zm-272.66 -297.68l272.66 0 0 266.77 -139.7 0c-43.25,-27.2 -87.56,-52.74 -132.96,-76.62l0 -190.15zm0 -321.87l272.66 0 0 290.93 -272.66 0 0 -290.93zm0 -227.4l171.55 -68.51 101.11 251.56 0 13.37 -272.66 0 0 -196.42zm576.33 1156.72l0 36.9c-10.9,-12.42 -21.77,-24.8 -32.95,-36.9l32.95 0zm-272.7 -309.77l235.94 0 36.76 91.54 0 187.26 -62.48 0c-65.51,-68.05 -135.75,-131.41 -210.22,-189.69l0 -89.11zm0 -297.68l116.24 0 107.21 266.77 -223.45 0 0 -266.77zm0 -289.13l103.83 258.19 -103.83 0 0 -258.19zm576.41 1206.35l0 185.5c-30.59,-63.82 -64.56,-125.66 -101.5,-185.5l101.5 0zm-272.74 -309.77l272.74 0 0 278.8 -121.36 0c-46.21,-71.93 -96.66,-140.9 -151.38,-206.2l0 -72.6zm0 -144.14l265.26 113.17 -265.26 0 0 -113.17zm607.38 1692.87l71.86 0 112.01 278.84 -183.87 0 0 -278.84zm0 -309.7l66.89 0 -61.53 144.32 54.05 134.44 -59.41 0 0 -278.76zm0 -309.78l199.04 0 -118.92 278.8 -80.12 0 0 -278.8zm0 -309.77l272.73 0 0 137.09 -60.46 141.71 -212.27 0 0 -278.8zm0 -309.71l272.73 0 0 278.77 -272.73 0 0 -278.77zm0 -194.8l272.73 116.31 0 47.52 -272.73 0 0 -163.83zm303.67 504.51l27.48 0 -27.48 64.45 0 -64.45zm0 -309.71l152.97 0 5.64 2.37 -117.9 276.4 -40.71 0 0 -278.77zm0 -65.26l80.4 34.29 -80.4 0 0 -34.29zm0 1923.77l17.15 0 112.08 278.8 -129.23 0 0 -278.8zm0 -42.69l4.73 11.72 -4.73 0 0 -11.72zm-264.79 -741.92l464.01 -1087.86 -1087.76 -464.01 -441.04 -1097.25 -1115.06 445.14 -1070.08 -468.35 -464.08 1087.97 -1097.28 441.04 441.01 1097.31 -464.01 1087.86 1087.79 464.05 441.04 1097.24 1124.97 -452.01 1060.07 475.37 464.15 -1088.12 1097.28 -441.07 -441.01 -1097.31z"/>
   <path class="fil0" d="M6032.78 2095.37l28.47 12.17 -12.17 28.5c-3.31,7.83 0.32,16.94 8.19,20.32 1.97,0.81 4.05,1.24 6.1,1.24 6,0 11.71,-3.57 14.22,-9.42l18.27 -42.76c3.32,-7.83 -0.32,-16.93 -8.18,-20.32l-42.76 -18.2c-7.87,-3.35 -16.93,0.32 -20.32,8.15 -3.35,7.86 0.32,16.97 8.18,20.32z"/>
   <path class="fil0" d="M5209.79 1744.32l82.27 35.13c2.01,0.85 4.09,1.24 6.1,1.24 6.03,0 11.75,-3.53 14.25,-9.38 3.35,-7.91 -0.28,-17.01 -8.18,-20.32l-82.27 -35.14c-7.94,-3.39 -16.97,0.28 -20.32,8.18 -3.35,7.87 0.32,16.94 8.15,20.29z"/>
   <path class="fil0" d="M5045.18 1674.12l82.3 35.1c2.02,0.84 4.06,1.23 6.07,1.23 6.04,0 11.75,-3.53 14.25,-9.42 3.36,-7.83 -0.28,-16.93 -8.14,-20.32l-82.31 -35.1c-7.93,-3.32 -16.93,0.32 -20.32,8.19 -3.35,7.86 0.32,16.96 8.15,20.32z"/>
   <path class="fil0" d="M5703.61 1954.96l82.26 35.1c2.01,0.85 4.1,1.24 6.07,1.24 6.03,0 11.75,-3.53 14.29,-9.42 3.32,-7.83 -0.32,-16.93 -8.19,-20.29l-82.3 -35.13c-7.9,-3.35 -16.93,0.35 -20.32,8.18 -3.35,7.87 0.32,16.97 8.19,20.32z"/>
   <path class="fil0" d="M5374.39 1814.56l82.27 35.1c2.01,0.84 4.09,1.27 6.1,1.27 6.04,0 11.72,-3.57 14.26,-9.42 3.35,-7.87 -0.29,-17.01 -8.19,-20.32l-82.27 -35.1c-7.93,-3.39 -16.96,0.31 -20.32,8.15 -3.38,7.86 0.32,16.96 8.15,20.32z"/>
   <path class="fil0" d="M5868.18 2025.2l82.3 35.1c2.01,0.85 4.09,1.24 6.07,1.24 6.03,0 11.75,-3.53 14.29,-9.39 3.31,-7.9 -0.32,-17 -8.19,-20.35l-82.3 -35.1c-7.9,-3.36 -16.94,0.31 -20.32,8.18 -3.35,7.83 0.32,16.93 8.15,20.32z"/>
   <path class="fil0" d="M5539 1884.76l82.27 35.14c2.01,0.84 4.09,1.23 6.1,1.23 6,0 11.71,-3.56 14.25,-9.42 3.35,-7.83 -0.31,-16.93 -8.18,-20.32l-82.27 -35.1c-7.9,-3.35 -16.97,0.35 -20.32,8.15 -3.39,7.87 0.32,17 8.15,20.32z"/>
   <path class="fil0" d="M4911.87 1612.34c1.55,3.81 4.51,6.85 8.25,8.47l42.76 18.24c2.01,0.85 4.06,1.23 6.07,1.23 6.03,0 11.74,-3.56 14.28,-9.42 3.32,-7.83 -0.31,-16.93 -8.18,-20.32l-36.87 -15.69 -14.92 -37.15c-3.17,-7.97 -12.13,-11.75 -20.14,-8.61 -7.94,3.21 -11.78,12.24 -8.57,20.14l17.32 43.11z"/>
   <path class="fil0" d="M4794.43 1320.17c2.43,6.04 8.22,9.67 14.36,9.67 1.97,0 3.91,-0.35 5.78,-1.09 7.94,-3.18 11.78,-12.25 8.57,-20.18l-33.33 -82.98c-3.18,-7.97 -12.21,-11.78 -20.15,-8.6 -7.94,3.21 -11.78,12.2 -8.57,20.14l33.34 83.04z"/>
   <path class="fil0" d="M4861.21 1486.23c2.4,6.03 8.22,9.66 14.36,9.66 1.9,0 3.84,-0.35 5.75,-1.09 7.9,-3.18 11.81,-12.24 8.6,-20.15l-33.37 -83c-3.17,-7.98 -12.17,-11.72 -20.14,-8.61 -7.9,3.21 -11.78,12.24 -8.61,20.14l33.41 83.05z"/>
   <path class="fil0" d="M4727.68 1154.12c2.44,6.03 8.26,9.7 14.4,9.7 1.9,0 3.84,-0.35 5.78,-1.09 7.9,-3.18 11.78,-12.21 8.57,-20.18l-33.33 -83.01c-3.18,-7.97 -12.21,-11.75 -20.18,-8.61 -7.91,3.21 -11.75,12.17 -8.58,20.15l33.34 83.04z"/>
   <path class="fil0" d="M4661.01 988.1c2.4,6 8.18,9.67 14.35,9.67 1.95,0 3.85,-0.35 5.76,-1.09 7.93,-3.18 11.81,-12.25 8.6,-20.18l-33.41 -82.98c-3.17,-7.97 -12.17,-11.74 -20.1,-8.6 -7.94,3.21 -11.79,12.2 -8.61,20.14l33.41 83.04z"/>
   <path class="fil0" d="M4594.23 822.02c2.47,6.03 8.25,9.7 14.35,9.7 1.98,0 3.92,-0.36 5.79,-1.1 7.94,-3.17 11.78,-12.24 8.61,-20.18l-33.41 -82.97c-3.18,-7.97 -12.14,-11.78 -20.11,-8.61 -7.94,3.21 -11.82,12.21 -8.61,20.15l33.38 83.01z"/>
   <path class="fil0" d="M4527.52 655.96c2.39,6.04 8.22,9.7 14.35,9.7 1.91,0 3.85,-0.35 5.79,-1.09 7.9,-3.17 11.78,-12.24 8.57,-20.18l-33.37 -82.97c-3.18,-7.97 -12.21,-11.75 -20.18,-8.61 -7.9,3.18 -11.78,12.21 -8.57,20.14l33.41 83.01z"/>
   <path class="fil0" d="M4420.48 472.77l28.72 -11.54 11.57 28.68c2.4,6.07 8.22,9.74 14.36,9.74 1.94,0 3.88,-0.36 5.75,-1.1 7.94,-3.17 11.82,-12.24 8.61,-20.17l-17.33 -43.08c-3.17,-7.97 -12.2,-11.71 -20.14,-8.61l-43.11 17.36c-7.9,3.14 -11.78,12.21 -8.57,20.14 3.17,7.94 12.21,11.72 20.14,8.58z"/>
   <path class="fil0" d="M3244.92 906.15l41.21 17.61c1.97,0.84 4.02,1.23 6.1,1.23 1.97,0 3.91,-0.32 5.75,-1.09l41.59 -16.69c7.9,-3.17 11.78,-12.17 8.57,-20.14 -3.17,-7.94 -12.24,-11.75 -20.14,-8.61l-35.59 14.32 -35.32 -15.06c-7.94,-3.39 -17,0.21 -20.32,8.15 -3.35,7.87 0.28,16.97 8.15,20.28z"/>
   <path class="fil0" d="M3749.53 741.19c1.95,0 3.85,-0.31 5.76,-1.09l83.14 -33.41c7.94,-3.21 11.79,-12.24 8.61,-20.14 -3.21,-7.97 -12.2,-11.75 -20.18,-8.57l-83.11 33.4c-7.94,3.18 -11.78,12.18 -8.57,20.11 2.4,6.07 8.22,9.7 14.35,9.7z"/>
   <path class="fil0" d="M2255.84 484.23l82.44 35.14c2.01,0.88 4.02,1.27 6.07,1.27 6.03,0 11.75,-3.53 14.25,-9.42 3.35,-7.87 -0.31,-16.97 -8.15,-20.29l-82.44 -35.17c-7.9,-3.42 -17,0.28 -20.32,8.15 -3.39,7.87 0.28,16.97 8.15,20.32z"/>
   <path class="fil0" d="M4082.13 607.53c1.91,0 3.85,-0.32 5.79,-1.1l83.11 -33.4c7.94,-3.18 11.79,-12.25 8.58,-20.15 -3.18,-7.97 -12.14,-11.71 -20.15,-8.61l-83.11 33.45c-7.94,3.17 -11.78,12.17 -8.61,20.11 2.43,6.06 8.26,9.7 14.39,9.7z"/>
   <path class="fil0" d="M3583.24 808.05c1.94,0 3.84,-0.39 5.78,-1.13l83.12 -33.41c7.93,-3.18 11.78,-12.21 8.6,-20.14 -3.17,-7.94 -12.2,-11.79 -20.18,-8.58l-83.11 33.41c-7.94,3.18 -11.78,12.21 -8.57,20.14 2.4,6.04 8.22,9.71 14.36,9.71z"/>
   <path class="fil0" d="M3915.83 674.38c1.91,0 3.85,-0.35 5.79,-1.1l83.11 -33.44c7.94,-3.17 11.79,-12.2 8.58,-20.14 -3.14,-7.94 -12.21,-11.75 -20.15,-8.57l-83.11 33.4c-7.94,3.18 -11.78,12.21 -8.61,20.15 2.44,6.03 8.26,9.7 14.39,9.7z"/>
   <path class="fil0" d="M4248.4 540.71c1.94,0 3.88,-0.35 5.82,-1.09l83.11 -33.45c7.94,-3.14 11.79,-12.2 8.58,-20.14 -3.18,-7.97 -12.21,-11.75 -20.15,-8.57l-83.15 33.41c-7.9,3.17 -11.78,12.24 -8.57,20.14 2.43,6.03 8.25,9.7 14.36,9.7z"/>
   <path class="fil0" d="M3416.94 874.93c1.94,0 3.84,-0.39 5.75,-1.16l83.18 -33.41c7.9,-3.17 11.78,-12.21 8.57,-20.11 -3.17,-7.97 -12.2,-11.78 -20.18,-8.61l-83.11 33.41c-7.94,3.21 -11.78,12.24 -8.57,20.15 2.4,6.06 8.22,9.73 14.36,9.73z"/>
   <path class="fil0" d="M3080.07 835.88l82.41 35.14c2.01,0.88 4.05,1.23 6.1,1.23 6,0 11.71,-3.49 14.22,-9.38 3.35,-7.87 -0.28,-16.97 -8.15,-20.29l-82.41 -35.2c-7.94,-3.36 -16.93,0.31 -20.32,8.18 -3.35,7.87 0.32,16.93 8.15,20.32z"/>
   <path class="fil0" d="M2420.69 554.54l82.45 35.21c1.97,0.84 4.02,1.23 6.06,1.23 6.04,0 11.75,-3.56 14.22,-9.42 3.39,-7.86 -0.28,-16.93 -8.15,-20.32l-82.41 -35.17c-7.94,-3.35 -17,0.35 -20.35,8.15 -3.35,7.9 0.28,17 8.18,20.32z"/>
   <path class="fil0" d="M2585.54 624.88l82.41 35.18c1.98,0.84 4.06,1.23 6.11,1.23 5.99,0 11.71,-3.56 14.21,-9.42 3.39,-7.83 -0.28,-16.93 -8.18,-20.32l-82.45 -35.17c-7.86,-3.39 -16.93,0.35 -20.28,8.15 -3.35,7.9 0.28,17 8.18,20.35z"/>
   <path class="fil0" d="M2750.36 695.23l82.45 35.17c1.97,0.81 4.05,1.23 6.06,1.23 6,0 11.72,-3.56 14.26,-9.41 3.35,-7.84 -0.32,-16.97 -8.19,-20.32l-82.44 -35.18c-7.87,-3.35 -16.94,0.36 -20.32,8.19 -3.35,7.83 0.32,16.93 8.18,20.32z"/>
   <path class="fil0" d="M2915.22 765.54l82.4 35.17c2.02,0.81 4.1,1.23 6.11,1.23 5.99,0 11.71,-3.52 14.25,-9.38 3.35,-7.9 -0.32,-17 -8.18,-20.36l-82.41 -35.17c-7.91,-3.35 -16.94,0.35 -20.32,8.19 -3.36,7.83 0.31,16.93 8.15,20.32z"/>
   <path class="fil0" d="M2112.47 473.61c1.98,0.81 4.06,1.24 6.07,1.24 5.99,0 11.71,-3.57 14.25,-9.42l12.14 -28.51 28.5 12.17c7.9,3.32 16.97,-0.35 20.32,-8.14 3.35,-7.91 -0.32,-17.01 -8.15,-20.32l-42.76 -18.28c-7.93,-3.35 -16.96,0.35 -20.32,8.15l-18.23 42.76c-3.36,7.86 0.31,16.97 8.18,20.35z"/>
   <path class="fil0" d="M1761.42 1296.68c2.01,0.81 4.06,1.23 6.07,1.23 6.03,0 11.75,-3.56 14.29,-9.42l35.1 -82.33c3.31,-7.84 -0.32,-16.94 -8.19,-20.32 -7.93,-3.39 -16.97,0.35 -20.32,8.14l-35.1 82.34c-3.39,7.87 0.28,16.97 8.15,20.36z"/>
   <path class="fil0" d="M1691.18 1461.25c2.01,0.85 4.06,1.23 6.11,1.23 6.03,0 11.71,-3.52 14.21,-9.42l35.1 -82.3c3.39,-7.83 -0.24,-16.93 -8.15,-20.32 -7.93,-3.38 -16.93,0.35 -20.28,8.15l-35.14 82.34c-3.35,7.87 0.32,16.97 8.15,20.32z"/>
   <path class="fil0" d="M1831.66 1132.04c1.97,0.81 4.06,1.23 6.03,1.23 6.03,0 11.75,-3.56 14.29,-9.42l35.1 -82.3c3.35,-7.87 -0.32,-16.93 -8.18,-20.32 -7.91,-3.32 -16.97,0.35 -20.32,8.15l-35.11 82.3c-3.38,7.87 0.32,16.97 8.19,20.36z"/>
   <path class="fil0" d="M1901.86 967.43c1.98,0.85 4.06,1.24 6.1,1.24 6,0 11.72,-3.57 14.22,-9.42l35.07 -82.31c3.38,-7.86 -0.28,-16.97 -8.15,-20.32 -7.97,-3.38 -16.97,0.32 -20.32,8.15l-35.1 82.31c-3.32,7.86 0.31,17 8.18,20.35z"/>
   <path class="fil0" d="M1972.06 802.82c1.98,0.85 4.03,1.24 6.07,1.24 6.03,0 11.75,-3.56 14.22,-9.42l35.14 -82.3c3.35,-7.87 -0.29,-16.97 -8.15,-20.32 -7.94,-3.39 -17.01,0.35 -20.32,8.15l-35.11 82.3c-3.38,7.87 0.25,17 8.15,20.35z"/>
   <path class="fil0" d="M2042.27 638.22c2.01,0.85 4.05,1.23 6.06,1.23 6.04,0 11.75,-3.52 14.26,-9.42l35.13 -82.3c3.32,-7.87 -0.31,-16.97 -8.18,-20.32 -7.9,-3.35 -16.97,0.35 -20.32,8.15l-35.1 82.3c-3.39,7.91 0.32,17.01 8.15,20.36z"/>
   <path class="fil0" d="M1600.87 1604.83c1.94,0 3.88,-0.35 5.79,-1.09l43.07 -17.36c3.85,-1.52 6.88,-4.48 8.5,-8.29l18.21 -42.72c3.38,-7.83 -0.32,-16.97 -8.15,-20.32 -7.91,-3.39 -16.97,0.35 -20.32,8.15l-15.74 36.83 -37.11 14.95c-7.94,3.18 -11.82,12.21 -8.61,20.15 2.44,6.03 8.22,9.7 14.36,9.7z"/>
   <path class="fil0" d="M1268.77 1738.29c1.94,0 3.88,-0.39 5.78,-1.13l83.01 -33.34c7.94,-3.18 11.78,-12.21 8.57,-20.14 -3.17,-7.94 -12.13,-11.79 -20.14,-8.61l-83.01 33.37c-7.9,3.18 -11.78,12.21 -8.57,20.14 2.43,6.07 8.22,9.71 14.36,9.71z"/>
   <path class="fil0" d="M604.56 2005.27c1.97,0 3.91,-0.35 5.78,-1.13l83.05 -33.37c7.93,-3.21 11.78,-12.25 8.57,-20.15 -3.18,-7.97 -12.24,-11.74 -20.15,-8.57l-83 33.37c-7.91,3.18 -11.82,12.21 -8.61,20.11 2.47,6.07 8.25,9.74 14.36,9.74z"/>
   <path class="fil0" d="M1434.82 1671.58c1.94,0 3.88,-0.39 5.78,-1.17l83.01 -33.34c7.94,-3.17 11.79,-12.24 8.58,-20.14 -3.18,-7.97 -12.18,-11.71 -20.15,-8.57l-83.01 33.34c-7.9,3.17 -11.78,12.24 -8.57,20.14 2.43,6.03 8.22,9.74 14.36,9.74z"/>
   <path class="fil0" d="M770.61 1938.52c1.97,0 3.91,-0.39 5.78,-1.13l83.05 -33.4c7.94,-3.14 11.78,-12.18 8.57,-20.11 -3.17,-7.94 -12.21,-11.75 -20.14,-8.61l-83.01 33.37c-7.9,3.21 -11.82,12.24 -8.61,20.18 2.47,6.03 8.26,9.7 14.36,9.7z"/>
   <path class="fil0" d="M936.66 1871.78c1.98,0 3.92,-0.36 5.82,-1.13l83.01 -33.37c7.94,-3.18 11.78,-12.25 8.57,-20.15 -3.17,-7.97 -12.2,-11.75 -20.14,-8.61l-83.01 33.41c-7.9,3.14 -11.82,12.21 -8.61,20.15 2.47,6.03 8.26,9.7 14.36,9.7z"/>
   <path class="fil0" d="M1102.71 1805.03c1.94,0 3.88,-0.35 5.79,-1.09l83.04 -33.38c7.94,-3.21 11.79,-12.2 8.58,-20.14 -3.18,-7.97 -12.14,-11.78 -20.15,-8.57l-83.04 33.34c-7.9,3.17 -11.82,12.2 -8.57,20.1 2.43,6.07 8.22,9.74 14.35,9.74z"/>
   <path class="fil0" d="M498.62 2049.05l28.75 -11.54c7.94,-3.17 11.78,-12.24 8.57,-20.18 -3.17,-7.93 -12.17,-11.71 -20.14,-8.57l-43.11 17.32c-7.9,3.18 -11.78,12.24 -8.57,20.18l17.32 43.04c2.43,6.07 8.25,9.74 14.35,9.74 1.95,0 3.89,-0.36 5.79,-1.13 7.94,-3.14 11.78,-12.21 8.61,-20.15l-11.57 -28.71z"/>
   <path class="fil0" d="M610.41 2327.21c-3.14,-7.93 -12.2,-11.74 -20.14,-8.57 -7.9,3.18 -11.78,12.21 -8.57,20.14l33.4 83.12c2.44,6.07 8.26,9.7 14.36,9.7 1.94,0 3.88,-0.32 5.82,-1.09 7.87,-3.18 11.79,-12.21 8.58,-20.15l-33.45 -83.15z"/>
   <path class="fil0" d="M548.64 4139.61c-7.9,-3.32 -16.97,0.35 -20.32,8.18l-35.14 82.45c-3.38,7.86 0.29,16.97 8.19,20.32 1.97,0.84 4.02,1.23 6.03,1.23 6.03,0 11.78,-3.53 14.25,-9.38l35.18 -82.45c3.38,-7.86 -0.29,-16.96 -8.19,-20.35z"/>
   <path class="fil0" d="M677.26 2493.51c-3.17,-7.94 -12.2,-11.75 -20.14,-8.57 -7.94,3.17 -11.78,12.21 -8.61,20.14l33.45 83.12c2.39,6.07 8.22,9.7 14.35,9.7 1.94,0 3.85,-0.32 5.75,-1.09 7.94,-3.18 11.82,-12.25 8.61,-20.15l-33.41 -83.15z"/>
   <path class="fil0" d="M830.02 2930.5c1.94,0 3.84,-0.35 5.75,-1.1 7.93,-3.17 11.81,-12.24 8.57,-20.14l-33.37 -83.18c-3.25,-7.94 -12.24,-11.75 -20.15,-8.58 -7.93,3.18 -11.78,12.24 -8.57,20.15l33.41 83.15c2.4,6.06 8.18,9.7 14.36,9.7z"/>
   <path class="fil0" d="M543.6 2160.95c-3.18,-7.97 -12.21,-11.75 -20.15,-8.61 -7.93,3.18 -11.78,12.21 -8.61,20.14l33.45 83.12c2.4,6.07 8.22,9.74 14.36,9.74 1.94,0 3.84,-0.36 5.78,-1.13 7.94,-3.14 11.78,-12.21 8.57,-20.15l-33.4 -83.11z"/>
   <path class="fil0" d="M641.99 3920.85c2.01,0.88 4.05,1.24 6.1,1.24 6,0 11.71,-3.5 14.22,-9.39l35.13 -82.44c3.39,-7.87 -0.31,-16.97 -8.15,-20.32 -7.97,-3.39 -16.97,0.35 -20.32,8.18l-35.13 82.41c-3.35,7.9 0.28,17.01 8.15,20.32z"/>
   <path class="fil0" d="M571.68 4085.7c1.94,0.89 4.02,1.24 6.07,1.24 6.03,0 11.71,-3.53 14.21,-9.38l35.17 -82.45c3.39,-7.87 -0.31,-16.97 -8.15,-20.32 -7.93,-3.39 -16.96,0.32 -20.35,8.15l-35.17 82.44c-3.32,7.91 0.32,16.97 8.22,20.32z"/>
   <path class="fil0" d="M782.6 3591.18c2.01,0.85 4.1,1.24 6.07,1.24 6.03,0 11.75,-3.53 14.25,-9.39l35.21 -82.44c3.32,-7.87 -0.32,-16.97 -8.18,-20.32 -7.98,-3.42 -16.97,0.31 -20.32,8.18l-35.18 82.41c-3.35,7.87 0.32,16.97 8.15,20.32z"/>
   <path class="fil0" d="M923.29 3261.47c1.98,0.82 4.02,1.24 6.03,1.24 6.04,0 11.75,-3.56 14.29,-9.42l17.57 -41.2c1.62,-3.81 1.69,-8.08 0.14,-11.89l-16.72 -41.53c-3.18,-7.97 -12.21,-11.71 -20.11,-8.57 -7.94,3.18 -11.82,12.21 -8.61,20.15l14.33 35.56 -15.1 35.34c-3.39,7.84 0.28,16.94 8.18,20.32z"/>
   <path class="fil0" d="M712.29 3756c2.02,0.88 4.06,1.27 6.11,1.27 5.99,0 11.71,-3.53 14.21,-9.42l35.18 -82.41c3.35,-7.9 -0.29,-16.97 -8.15,-20.32 -7.94,-3.42 -17.01,0.32 -20.32,8.15l-35.17 82.44c-3.36,7.87 0.28,16.97 8.14,20.29z"/>
   <path class="fil0" d="M744.12 2659.78c-3.18,-7.94 -12.18,-11.75 -20.15,-8.58 -7.9,3.18 -11.78,12.25 -8.57,20.11l33.41 83.19c2.43,6.07 8.22,9.7 14.36,9.7 1.94,0 3.88,-0.35 5.78,-1.09 7.9,-3.18 11.82,-12.25 8.61,-20.15l-33.44 -83.18z"/>
   <path class="fil0" d="M896.83 3096.76c1.94,0 3.88,-0.35 5.79,-1.09 7.9,-3.18 11.78,-12.24 8.57,-20.18l-33.41 -83.11c-3.17,-7.98 -12.17,-11.72 -20.14,-8.58 -7.9,3.18 -11.82,12.21 -8.57,20.15l33.4 83.15c2.44,5.99 8.22,9.66 14.36,9.66z"/>
   <path class="fil0" d="M852.95 3426.33c2.01,0.81 4.05,1.23 6.06,1.23 6.04,0 11.75,-3.56 14.29,-9.42l35.14 -82.41c3.32,-7.83 -0.32,-16.96 -8.19,-20.32 -7.86,-3.35 -16.96,0.36 -20.32,8.19l-35.13 82.41c-3.39,7.83 0.32,16.93 8.15,20.32z"/>
   <path class="fil0" d="M502.85 4365.46l-28.47 -12.17 12.14 -28.47c3.35,-7.87 -0.29,-16.97 -8.19,-20.36 -7.86,-3.31 -16.93,0.35 -20.28,8.19l-18.24 42.72c-3.35,7.86 0.28,16.97 8.15,20.32l42.75 18.24c2.02,0.84 4.03,1.27 6.07,1.27 6.04,0 11.75,-3.57 14.25,-9.42 3.36,-7.91 -0.31,-16.97 -8.18,-20.32z"/>
   <path class="fil0" d="M1325.88 4716.47l-82.3 -35.1c-7.9,-3.32 -16.97,0.32 -20.32,8.15 -3.35,7.87 0.28,17 8.15,20.35l82.3 35.1c2.01,0.86 4.06,1.24 6.07,1.24 6.03,0 11.75,-3.57 14.25,-9.43 3.35,-7.82 -0.32,-16.92 -8.15,-20.31z"/>
   <path class="fil0" d="M1161.27 4646.26l-82.3 -35.1c-7.94,-3.39 -16.97,0.29 -20.32,8.16 -3.35,7.87 0.28,16.96 8.19,20.31l82.26 35.1c2.01,0.86 4.06,1.28 6.07,1.28 6.03,0 11.75,-3.57 14.25,-9.42 3.36,-7.87 -0.31,-16.97 -8.15,-20.33z"/>
   <path class="fil0" d="M996.67 4576.07l-82.27 -35.11c-7.94,-3.32 -17.04,0.32 -20.35,8.15 -3.36,7.91 0.28,16.98 8.18,20.33l82.27 35.09c2.01,0.84 4.05,1.25 6.1,1.25 6,0 11.71,-3.53 14.22,-9.39 3.35,-7.91 -0.32,-17 -8.15,-20.32z"/>
   <path class="fil0" d="M667.46 4435.62l-82.27 -35.1c-7.94,-3.35 -17.01,0.36 -20.36,8.15 -3.31,7.87 0.32,16.97 8.19,20.36l82.27 35.1c2.01,0.85 4.05,1.23 6.1,1.23 6.03,0 11.71,-3.56 14.22,-9.42 3.38,-7.83 -0.29,-16.93 -8.15,-20.32z"/>
   <path class="fil0" d="M832.06 4505.83l-82.27 -35.1c-7.93,-3.32 -17.03,0.34 -20.35,8.18 -3.35,7.83 0.32,16.97 8.18,20.31l82.27 35.12c2.01,0.84 4.06,1.22 6.1,1.22 6,0 11.72,-3.52 14.22,-9.38 3.39,-7.87 -0.32,-16.97 -8.15,-20.35z"/>
   <path class="fil0" d="M1490.49 4786.67l-82.31 -35.1c-7.9,-3.39 -16.96,0.32 -20.32,8.19 -3.35,7.86 0.29,16.96 8.15,20.32l82.31 35.1c2.01,0.84 4.02,1.23 6.06,1.23 6.04,0 11.75,-3.53 14.26,-9.41 3.35,-7.83 -0.32,-16.94 -8.15,-20.33z"/>
   <path class="fil0" d="M1623.77 4848.47c-1.56,-3.8 -4.52,-6.83 -8.29,-8.46l-42.73 -18.24c-7.93,-3.38 -16.96,0.32 -20.32,8.18 -3.35,7.87 0.29,16.94 8.15,20.33l36.83 15.69 14.96 37.16c2.4,6.06 8.22,9.7 14.36,9.7 1.94,0 3.85,-0.36 5.79,-1.13 7.93,-3.18 11.78,-12.17 8.57,-20.11l-17.32 -43.12z"/>
   <path class="fil0" d="M1741.17 5140.65c-3.17,-7.94 -12.17,-11.74 -20.11,-8.57 -7.93,3.18 -11.82,12.2 -8.57,20.14l33.34 83.01c2.4,6.07 8.18,9.73 14.36,9.73 1.94,0 3.88,-0.38 5.75,-1.15 7.93,-3.19 11.81,-12.17 8.6,-20.11l-33.37 -83.05z"/>
   <path class="fil0" d="M1674.46 4974.59c-3.17,-7.94 -12.21,-11.74 -20.14,-8.57 -7.91,3.18 -11.82,12.21 -8.61,20.15l33.34 83.01c2.47,6.07 8.25,9.7 14.39,9.7 1.94,0 3.88,-0.36 5.79,-1.13 7.9,-3.18 11.78,-12.17 8.57,-20.1l-33.34 -83.06z"/>
   <path class="fil0" d="M2008.19 5804.82c-3.21,-7.97 -12.24,-11.74 -20.18,-8.6 -7.9,3.17 -11.78,12.2 -8.57,20.18l33.33 83.01c2.44,6.06 8.26,9.73 14.4,9.73 1.9,0 3.84,-0.39 5.78,-1.16 7.91,-3.14 11.75,-12.14 8.58,-20.11l-33.34 -83.05z"/>
   <path class="fil0" d="M1807.95 5306.7c-3.17,-7.97 -12.2,-11.74 -20.18,-8.61 -7.9,3.18 -11.78,12.21 -8.57,20.18l33.37 83.02c2.4,6.06 8.22,9.73 14.36,9.73 1.94,0 3.85,-0.39 5.79,-1.16 7.9,-3.18 11.74,-12.14 8.57,-20.12l-33.34 -83.04z"/>
   <path class="fil0" d="M1874.66 5472.75c-3.17,-7.96 -12.17,-11.74 -20.14,-8.61 -7.94,3.18 -11.78,12.25 -8.57,20.19l33.33 82.97c2.47,6.06 8.26,9.73 14.36,9.73 1.94,0 3.92,-0.38 5.79,-1.16 7.93,-3.14 11.78,-12.16 8.6,-20.1l-33.37 -83.02z"/>
   <path class="fil0" d="M1941.41 5638.81c-3.18,-7.98 -12.21,-11.74 -20.11,-8.62 -7.94,3.19 -11.82,12.26 -8.64,20.19l33.4 82.97c2.4,6.07 8.19,9.73 14.36,9.73 1.94,0 3.85,-0.38 5.75,-1.15 7.94,-3.14 11.82,-12.17 8.61,-20.11l-33.37 -83.01z"/>
   <path class="fil0" d="M2115.15 5988.06l-28.75 11.53 -11.54 -28.72c-3.17,-7.96 -12.2,-11.71 -20.14,-8.57 -7.94,3.15 -11.78,12.21 -8.57,20.15l17.32 43.08c2.4,6.02 8.22,9.7 14.36,9.7 1.94,0 3.84,-0.36 5.78,-1.11l43.11 -17.35c7.9,-3.13 11.78,-12.2 8.57,-20.14 -3.17,-7.94 -12.17,-11.74 -20.14,-8.57z"/>
   <path class="fil0" d="M2946.58 5653.87l-83.12 33.45c-7.93,3.14 -11.78,12.21 -8.6,20.14 2.43,6.04 8.25,9.7 14.39,9.7 1.9,0 3.84,-0.36 5.78,-1.13l83.12 -33.4c7.94,-3.18 11.78,-12.21 8.57,-20.15 -3.14,-7.93 -12.21,-11.75 -20.14,-8.61z"/>
   <path class="fil0" d="M3290.68 5554.66l-41.21 -17.59c-3.77,-1.59 -8.11,-1.66 -11.85,-0.11l-41.59 16.68c-7.91,3.15 -11.79,12.17 -8.58,20.15 3.18,7.94 12.21,11.74 20.18,8.57l35.56 -14.29 35.32 15.06c2.01,0.89 4.09,1.29 6.1,1.29 6,0 11.71,-3.53 14.22,-9.43 3.35,-7.87 -0.29,-16.94 -8.15,-20.33z"/>
   <path class="fil0" d="M2613.98 5787.54l-83.12 33.44c-7.93,3.15 -11.78,12.21 -8.57,20.15 2.4,6.02 8.22,9.66 14.36,9.66 1.94,0 3.84,-0.31 5.79,-1.09l83.11 -33.42c7.94,-3.16 11.78,-12.23 8.61,-20.13 -3.18,-7.98 -12.21,-11.71 -20.18,-8.61z"/>
   <path class="fil0" d="M3455.53 5624.99l-82.41 -35.19c-7.94,-3.39 -17,0.36 -20.32,8.15 -3.35,7.87 0.32,17 8.15,20.37l82.41 35.16c2.01,0.82 4.06,1.24 6.07,1.24 6.03,0 11.74,-3.56 14.25,-9.42 3.35,-7.87 -0.28,-16.97 -8.15,-20.31z"/>
   <path class="fil0" d="M3620.38 5695.29l-82.41 -35.14c-7.93,-3.38 -17,0.35 -20.32,8.15 -3.38,7.87 0.29,16.98 8.15,20.35l82.41 35.14c2.01,0.81 4.06,1.24 6.07,1.24 6.03,0 11.75,-3.57 14.25,-9.43 3.35,-7.82 -0.32,-16.96 -8.15,-20.31z"/>
   <path class="fil0" d="M2447.68 5854.39l-83.12 33.4c-7.93,3.18 -11.78,12.25 -8.57,20.15 2.4,6.04 8.22,9.7 14.36,9.7 1.94,0 3.85,-0.35 5.79,-1.09l83.15 -33.44c7.9,-3.15 11.78,-12.21 8.57,-20.15 -3.18,-7.97 -12.17,-11.74 -20.18,-8.57z"/>
   <path class="fil0" d="M3785.27 5765.63l-82.44 -35.17c-7.94,-3.39 -17.01,0.32 -20.36,8.18 -3.35,7.83 0.32,16.94 8.19,20.32l82.44 35.18c1.98,0.81 4.02,1.2 6.07,1.2 6.03,0 11.75,-3.53 14.25,-9.38 3.35,-7.87 -0.32,-16.98 -8.15,-20.33z"/>
   <path class="fil0" d="M3112.88 5587.05l-83.12 33.41c-7.94,3.18 -11.78,12.24 -8.61,20.15 2.44,6.02 8.26,9.73 14.4,9.73 1.9,0 3.84,-0.38 5.78,-1.13l83.12 -33.44c7.94,-3.17 11.78,-12.17 8.57,-20.11 -3.17,-7.97 -12.21,-11.78 -20.14,-8.61z"/>
   <path class="fil0" d="M2780.28 5720.72l-83.12 33.42c-7.93,3.17 -11.78,12.23 -8.57,20.13 2.4,6.03 8.22,9.7 14.36,9.7 1.94,0 3.84,-0.35 5.78,-1.09l83.12 -33.44c7.94,-3.17 11.78,-12.21 8.61,-20.11 -3.18,-7.98 -12.21,-11.78 -20.18,-8.61z"/>
   <path class="fil0" d="M4114.91 5906.28l-82.45 -35.14c-7.9,-3.41 -16.93,0.29 -20.28,8.12 -3.39,7.9 0.28,16.96 8.18,20.33l82.41 35.13c1.98,0.88 4.06,1.23 6.07,1.23 6.03,0 11.75,-3.5 14.25,-9.38 3.35,-7.87 -0.28,-16.97 -8.18,-20.29z"/>
   <path class="fil0" d="M3950.05 5835.91l-82.41 -35.14c-7.9,-3.35 -16.96,0.32 -20.32,8.18 -3.35,7.83 0.29,16.94 8.19,20.32l82.44 35.18c1.98,0.84 4.03,1.19 6.07,1.19 6,0 11.75,-3.49 14.22,-9.38 3.38,-7.87 -0.28,-16.97 -8.19,-20.35z"/>
   <path class="fil0" d="M2281.41 5921.21l-83.14 33.44c-7.91,3.17 -11.79,12.17 -8.58,20.11 2.4,6.06 8.22,9.7 14.36,9.7 1.94,0 3.88,-0.32 5.79,-1.09l83.15 -33.41c7.9,-3.18 11.78,-12.24 8.57,-20.15 -3.18,-7.97 -12.24,-11.7 -20.15,-8.6z"/>
   <path class="fil0" d="M4279.76 5976.59l-82.44 -35.17c-7.91,-3.31 -16.94,0.28 -20.32,8.15 -3.36,7.9 0.31,17 8.14,20.32l82.45 35.17c2.01,0.88 4.09,1.27 6.1,1.27 6,0 11.71,-3.55 14.25,-9.41 3.36,-7.87 -0.31,-16.98 -8.18,-20.33z"/>
   <path class="fil0" d="M4423.2 5987.24c-7.94,-3.34 -17,0.32 -20.36,8.16l-12.13 28.5 -28.51 -12.17c-7.97,-3.35 -16.93,0.35 -20.32,8.15 -3.35,7.87 0.32,17 8.15,20.32l42.72 18.23c2.02,0.89 4.06,1.24 6.11,1.24 6.03,0 11.75,-3.5 14.21,-9.38l18.28 -42.72c3.35,-7.87 -0.32,-16.98 -8.15,-20.33z"/>
   <path class="fil0" d="M4704.01 5328.79c-7.94,-3.35 -16.97,0.34 -20.35,8.19l-35.11 82.26c-3.35,7.9 0.32,16.97 8.19,20.32 1.97,0.88 4.06,1.24 6.07,1.24 5.99,0 11.74,-3.53 14.25,-9.39l35.1 -82.27c3.35,-7.86 -0.32,-17 -8.15,-20.35z"/>
   <path class="fil0" d="M4774.21 5164.14c-7.9,-3.31 -16.97,0.36 -20.32,8.19l-35.13 82.34c-3.32,7.87 0.31,16.93 8.18,20.28 2.01,0.88 4.06,1.24 6.1,1.24 6,0 11.72,-3.5 14.22,-9.39l35.1 -82.31c3.39,-7.86 -0.32,-16.96 -8.15,-20.35z"/>
   <path class="fil0" d="M4563.57 5658.03c-7.94,-3.42 -16.93,0.29 -20.32,8.16l-35.1 82.3c-3.35,7.86 0.32,16.93 8.15,20.32 2.01,0.84 4.05,1.23 6.1,1.23 6,0 11.71,-3.53 14.22,-9.39l35.1 -82.29c3.39,-7.91 -0.25,-17.01 -8.15,-20.33z"/>
   <path class="fil0" d="M4844.42 4999.54c-7.94,-3.31 -16.94,0.35 -20.29,8.18l-35.14 82.34c-3.35,7.87 0.29,16.94 8.15,20.33 2.01,0.84 4.06,1.22 6.11,1.22 6.03,0 11.74,-3.53 14.21,-9.38l35.11 -82.34c3.38,-7.85 -0.25,-16.96 -8.15,-20.35z"/>
   <path class="fil0" d="M4493.37 5822.64c-7.94,-3.42 -16.97,0.29 -20.32,8.12l-35.1 82.33c-3.36,7.87 0.28,16.94 8.14,20.33 2.02,0.84 4.06,1.22 6.07,1.22 6.03,0 11.75,-3.52 14.25,-9.38l35.11 -82.34c3.35,-7.86 -0.32,-16.96 -8.15,-20.28z"/>
   <path class="fil0" d="M4633.77 5493.4c-7.9,-3.39 -16.97,0.31 -20.32,8.18l-35.06 82.3c-3.39,7.87 0.28,16.93 8.15,20.32 1.97,0.89 4.05,1.23 6.06,1.23 6.04,0 11.75,-3.53 14.26,-9.38l35.1 -82.3c3.31,-7.91 -0.32,-17 -8.19,-20.35z"/>
   <path class="fil0" d="M4928.98 4857.09l-43.08 17.36c-3.84,1.54 -6.88,4.51 -8.46,8.28l-18.24 42.72c-3.39,7.87 0.31,16.94 8.15,20.33 2.01,0.81 4.05,1.22 6.06,1.22 6.04,0 11.75,-3.52 14.29,-9.38l15.7 -36.82 37.15 -14.97c7.9,-3.17 11.78,-12.23 8.57,-20.13 -3.17,-7.98 -12.21,-11.71 -20.14,-8.61z"/>
   <path class="fil0" d="M5925.29 4456.69l-83.08 33.33c-7.9,3.18 -11.78,12.21 -8.57,20.15 2.4,6.06 8.22,9.74 14.36,9.74 1.94,0 3.88,-0.4 5.78,-1.13l83.05 -33.38c7.9,-3.18 11.78,-12.17 8.57,-20.14 -3.17,-7.94 -12.21,-11.71 -20.11,-8.57z"/>
   <path class="fil0" d="M5095.03 4790.42l-83.01 33.33c-7.94,3.17 -11.78,12.21 -8.57,20.11 2.4,6.06 8.22,9.74 14.36,9.74 1.94,0 3.84,-0.36 5.75,-1.1l83.04 -33.38c7.9,-3.21 11.78,-12.19 8.57,-20.13 -3.17,-7.98 -12.17,-11.76 -20.14,-8.57z"/>
   <path class="fil0" d="M5759.24 4523.4l-83.04 33.4c-7.94,3.18 -11.79,12.17 -8.58,20.11 2.4,6.07 8.22,9.7 14.36,9.7 1.94,0 3.88,-0.35 5.79,-1.12l83.01 -33.35c7.9,-3.17 11.81,-12.2 8.57,-20.1 -3.18,-7.97 -12.17,-11.75 -20.11,-8.64z"/>
   <path class="fil0" d="M5427.17 4656.93l-83.08 33.33c-7.94,3.17 -11.78,12.21 -8.57,20.14 2.4,6.03 8.22,9.74 14.36,9.74 1.94,0 3.84,-0.39 5.78,-1.16l83.05 -33.35c7.9,-3.17 11.78,-12.19 8.57,-20.13 -3.18,-7.98 -12.17,-11.71 -20.11,-8.57z"/>
   <path class="fil0" d="M5593.19 4590.18l-83.05 33.33c-7.93,3.18 -11.78,12.21 -8.57,20.15 2.4,6.03 8.22,9.7 14.36,9.7 1.94,0 3.88,-0.36 5.78,-1.09l83.01 -33.38c7.9,-3.18 11.82,-12.21 8.58,-20.14 -3.18,-7.94 -12.14,-11.74 -20.11,-8.57z"/>
   <path class="fil0" d="M5261.08 4723.63l-83.01 33.34c-7.93,3.21 -11.78,12.24 -8.57,20.18 2.4,6.06 8.22,9.7 14.36,9.7 1.94,0 3.84,-0.39 5.75,-1.13l83.04 -33.34c7.91,-3.16 11.79,-12.21 8.58,-20.14 -3.21,-7.94 -12.21,-11.74 -20.15,-8.61z"/>
   <path class="fil0" d="M6037.02 4411.78l-28.75 11.53c-7.91,3.18 -11.79,12.24 -8.58,20.18 2.4,6.03 8.22,9.67 14.36,9.67 1.94,0 3.88,-0.35 5.79,-1.1l43.11 -17.32c7.93,-3.17 11.78,-12.24 8.57,-20.18l-17.32 -43.07c-3.18,-7.94 -12.21,-11.75 -20.15,-8.57 -7.93,3.14 -11.78,12.2 -8.6,20.14l11.57 28.72z"/>
   <path class="fil0" d="M5986.96 2321.18c1.97,0.85 4.05,1.24 6.1,1.24 6,0 11.75,-3.53 14.22,-9.39l35.17 -82.44c3.39,-7.87 -0.32,-16.97 -8.19,-20.32 -7.93,-3.42 -16.93,0.31 -20.32,8.18l-35.13 82.41c-3.35,7.87 0.28,16.97 8.15,20.32z"/>
   <path class="fil0" d="M5963.96 2375.12c-7.91,-3.42 -16.94,0.28 -20.29,8.15l-35.17 82.44c-3.39,7.87 0.28,16.97 8.18,20.29 1.98,0.88 4.03,1.27 6.04,1.27 6.03,0 11.74,-3.53 14.28,-9.42l35.14 -82.41c3.35,-7.9 -0.28,-16.97 -8.18,-20.32z"/>
   <path class="fil0" d="M5753.03 2869.61c-7.94,-3.35 -17,0.32 -20.32,8.18l-35.17 82.45c-3.35,7.86 0.28,16.97 8.15,20.32 2.01,0.84 4.05,1.23 6.1,1.23 6,0 11.71,-3.53 14.22,-9.38l35.17 -82.45c3.35,-7.86 -0.32,-16.96 -8.15,-20.35z"/>
   <path class="fil0" d="M5612.38 3199.35c-7.94,-3.39 -17.01,0.35 -20.36,8.18l-17.6 41.24c-1.59,3.78 -1.66,8.05 -0.11,11.82l16.72 41.52c2.4,6.07 8.19,9.74 14.33,9.74 1.97,0 3.91,-0.35 5.78,-1.13 7.94,-3.14 11.79,-12.2 8.61,-20.14l-14.32 -35.56 15.1 -35.35c3.38,-7.83 -0.29,-16.97 -8.15,-20.32z"/>
   <path class="fil0" d="M5699.87 3531.42c-7.94,3.17 -11.82,12.24 -8.61,20.18l33.41 83.11c2.43,6.07 8.25,9.7 14.36,9.7 1.94,0 3.91,-0.31 5.78,-1.09 7.94,-3.17 11.78,-12.24 8.61,-20.14l-33.44 -83.19c-3.18,-7.94 -12.14,-11.75 -20.11,-8.57z"/>
   <path class="fil0" d="M5992.04 4299.88c2.43,6.03 8.25,9.73 14.36,9.73 1.94,0 3.88,-0.39 5.82,-1.13 7.9,-3.17 11.74,-12.24 8.57,-20.18l-33.44 -83.11c-3.18,-7.97 -12.21,-11.71 -20.15,-8.57 -7.9,3.17 -11.78,12.2 -8.57,20.14l33.41 83.12z"/>
   <path class="fil0" d="M5893.65 2539.94c-7.94,-3.39 -16.97,0.32 -20.32,8.18l-35.14 82.41c-3.39,7.9 0.28,17.01 8.15,20.32 2.01,0.88 4.06,1.24 6.07,1.24 6.03,0 11.75,-3.5 14.29,-9.39l35.13 -82.44c3.32,-7.87 -0.32,-16.97 -8.18,-20.32z"/>
   <path class="fil0" d="M5682.69 3034.5c-7.94,-3.32 -16.97,0.35 -20.32,8.18l-35.18 82.41c-3.31,7.83 0.32,16.93 8.19,20.32 2.01,0.81 4.06,1.24 6.1,1.24 6,0 11.71,-3.57 14.22,-9.42l35.14 -82.41c3.35,-7.83 -0.32,-16.97 -8.15,-20.32z"/>
   <path class="fil0" d="M5823.34 2704.79c-7.94,-3.39 -16.97,0.28 -20.32,8.15l-35.17 82.44c-3.35,7.87 0.31,16.97 8.15,20.32 2.01,0.89 4.05,1.24 6.1,1.24 6,0 11.71,-3.53 14.22,-9.38l35.17 -82.45c3.35,-7.87 -0.28,-16.97 -8.15,-20.32z"/>
   <path class="fil0" d="M5633.02 3365.16c-7.91,3.17 -11.79,12.2 -8.58,20.14l33.45 83.15c2.4,6.03 8.18,9.7 14.32,9.7 1.94,0 3.88,-0.35 5.78,-1.13 7.91,-3.17 11.79,-12.2 8.58,-20.14l-33.41 -83.12c-3.18,-7.97 -12.21,-11.74 -20.14,-8.6z"/>
   <path class="fil0" d="M5791.52 3801.05c2.43,6.03 8.22,9.66 14.36,9.66 1.94,0 3.88,-0.35 5.78,-1.09 7.94,-3.17 11.78,-12.24 8.57,-20.14l-33.4 -83.19c-3.18,-7.94 -12.21,-11.75 -20.11,-8.57 -7.94,3.17 -11.82,12.24 -8.64,20.14l33.44 83.19z"/>
   <path class="fil0" d="M5858.37 3967.31c2.43,6.03 8.25,9.67 14.36,9.67 1.94,0 3.91,-0.35 5.78,-1.1 7.94,-3.17 11.79,-12.24 8.61,-20.14l-33.44 -83.15c-3.14,-7.94 -12.17,-11.68 -20.11,-8.57 -7.94,3.17 -11.82,12.24 -8.61,20.14l33.41 83.15z"/>
   <path class="fil0" d="M5925.22 4133.61c2.4,6 8.22,9.67 14.36,9.67 1.94,0 3.84,-0.35 5.78,-1.1 7.94,-3.17 11.79,-12.24 8.58,-20.17l-33.41 -83.12c-3.18,-7.97 -12.21,-11.71 -20.14,-8.57 -7.94,3.17 -11.79,12.24 -8.61,20.14l33.44 83.15z"/>
   <path class="fil0" d="M4895.71 4109.13c-7.41,-4.06 -16.86,-1.38 -21.06,6.14 -14.75,26.81 -30.38,53.62 -46.46,79.62 -4.52,7.27 -2.26,16.79 5.04,21.27 2.51,1.59 5.33,2.37 8.12,2.37 5.18,0 10.23,-2.62 13.16,-7.38 16.36,-26.42 32.27,-53.69 47.3,-80.96 4.13,-7.48 1.41,-16.9 -6.1,-21.06z"/>
   <path class="fil0" d="M3102.19 1406.5c0.49,0 0.95,-0.04 1.37,-0.07 30.7,-2.72 61.6,-4.69 91.94,-5.86 8.5,-0.35 15.17,-7.55 14.88,-16.09 -0.35,-8.53 -6.1,-14.53 -16.08,-14.88 -30.8,1.2 -62.27,3.24 -93.45,5.99 -8.5,0.75 -14.82,8.26 -14.04,16.76 0.7,8.08 7.48,14.15 15.38,14.15z"/>
   <path class="fil0" d="M1640.95 4076.04c-3.92,-7.66 -13.37,-10.59 -20.82,-6.6 -7.62,3.95 -10.58,13.27 -6.63,20.89 14.36,27.62 29.6,55.17 45.19,81.84 2.86,4.9 8.08,7.66 13.37,7.66 2.65,0 5.36,-0.67 7.83,-2.12 7.38,-4.31 9.85,-13.83 5.54,-21.2 -15.34,-26.21 -30.3,-53.31 -44.48,-80.47z"/>
   <path class="fil0" d="M1618.19 2398.4c2.23,1.2 4.69,1.73 7.09,1.73 5.58,0 11.01,-3.03 13.76,-8.36 14.01,-27.09 28.89,-54.26 44.35,-80.78 4.37,-7.41 1.83,-16.9 -5.58,-21.21 -7.37,-4.34 -16.83,-1.83 -21.13,5.58 -15.73,26.98 -30.9,54.64 -45.19,82.19 -3.92,7.59 -0.92,16.94 6.7,20.85z"/>
   <path class="fil0" d="M1505.37 3734.62c-2.36,-8.18 -10.79,-12.98 -19.15,-10.69 -8.26,2.36 -13.05,10.94 -10.69,19.16 8.47,29.81 17.85,59.9 27.87,89.36 2.19,6.45 8.22,10.51 14.67,10.51 1.66,0 3.36,-0.28 5.01,-0.81 8.08,-2.76 12.42,-11.54 9.67,-19.65 -9.88,-29 -19.12,-58.6 -27.38,-87.88z"/>
   <path class="fil0" d="M4168.35 1634.96c26.6,15.03 53.2,30.94 79.13,47.38 2.54,1.62 5.43,2.39 8.26,2.39 5.15,0 10.16,-2.54 13.12,-7.23 4.55,-7.19 2.43,-16.75 -4.8,-21.34 -26.39,-16.69 -53.44,-32.88 -80.43,-48.16 -7.48,-4.16 -16.94,-1.58 -21.13,5.9 -4.2,7.44 -1.59,16.86 5.85,21.06z"/>
   <path class="fil0" d="M2395.54 1617.81c2.47,0 5.01,-0.6 7.34,-1.87 26.91,-14.43 54.5,-28.36 82.02,-41.34 7.76,-3.71 11.07,-12.91 7.37,-20.64 -3.7,-7.8 -12.95,-11.01 -20.6,-7.37 -27.98,13.23 -56.09,27.37 -83.43,42.08 -7.55,4.06 -10.38,13.44 -6.35,20.99 2.78,5.19 8.15,8.15 13.65,8.15z"/>
   <path class="fil0" d="M2236.75 1713.59c3,0 6,-0.85 8.65,-2.64 25.29,-17.08 51.36,-33.66 77.54,-49.53 7.33,-4.41 9.7,-13.87 5.25,-21.21 -4.44,-7.37 -14,-9.63 -21.23,-5.25 -26.64,16.08 -53.17,32.95 -78.85,50.27 -7.09,4.83 -9,14.43 -4.2,21.52 3,4.44 7.87,6.84 12.84,6.84z"/>
   <path class="fil0" d="M5032.23 2693.64c1.56,0 3.11,-0.21 4.66,-0.67 8.15,-2.57 12.67,-11.25 10.16,-19.4 -9.38,-29.81 -19.54,-59.65 -30.3,-88.65 -2.97,-7.98 -11.82,-12.14 -19.93,-9.14 -7.98,2.96 -12.07,11.89 -9.14,19.9 10.62,28.5 20.6,57.85 29.77,87.13 2.12,6.6 8.22,10.83 14.78,10.83z"/>
   <path class="fil0" d="M5131.89 3229.34c0.15,-0.89 0.22,-1.7 0.22,-2.54 -0.07,-31.05 -0.89,-62.55 -2.54,-93.67 -0.43,-8.5 -7.66,-15.59 -16.27,-14.64 -8.53,0.46 -15.1,7.73 -14.64,16.3 1.59,30.52 2.4,61.49 2.47,92.04 0,0.92 0.11,1.8 0.25,2.65 -0.14,0.81 -0.21,1.66 -0.21,2.5 0,30.73 -0.74,61.7 -2.22,92.04 -0.43,8.57 6.13,15.81 14.71,16.23 0.24,0 0.49,0 0.7,0 8.26,0 15.1,-6.42 15.49,-14.71 1.55,-30.83 2.29,-62.3 2.29,-93.56 0,-0.88 -0.1,-1.83 -0.25,-2.64z"/>
   <path class="fil0" d="M4663.44 2043.26c3.07,3.57 7.41,5.43 11.78,5.43 3.6,0 7.13,-1.19 10.06,-3.7 6.49,-5.57 7.27,-15.31 1.76,-21.84 -20.07,-23.53 -41.1,-46.95 -62.55,-69.67 -5.82,-6.24 -15.66,-6.56 -21.87,-0.63 -6.21,5.85 -6.49,15.69 -0.63,21.87 21.06,22.33 41.73,45.36 61.45,68.54z"/>
   <path class="fil0" d="M5038.41 3766.09c-8.33,-2.72 -16.9,2.01 -19.4,10.19 -9.14,29.39 -19.09,58.81 -29.6,87.39 -2.93,8.04 1.2,16.93 9.21,19.89 1.76,0.64 3.56,0.92 5.32,0.92 6.28,0 12.24,-3.85 14.57,-10.12 10.66,-29.07 20.78,-58.99 30.06,-88.9 2.54,-8.19 -2.01,-16.87 -10.16,-19.37z"/>
   <path class="fil0" d="M1445.12 2926.37c0.88,0.18 1.76,0.25 2.68,0.25 7.37,0 13.9,-5.33 15.21,-12.84 5.32,-30.27 11.43,-60.61 18.16,-90.24 1.91,-8.33 -3.31,-16.62 -11.64,-18.56 -8.43,-1.94 -16.65,3.35 -18.52,11.68 -6.91,30.12 -13.12,60.99 -18.48,91.79 -1.49,8.4 4.12,16.47 12.59,17.92z"/>
   <path class="fil0" d="M1484.81 2745.04c1.41,0.39 2.78,0.57 4.2,0.57 6.73,0 12.94,-4.45 14.88,-11.26 8.36,-29.66 17.5,-59.3 27.17,-88.01 2.75,-8.08 -1.59,-16.87 -9.67,-19.58 -8.11,-2.68 -16.9,1.62 -19.65,9.7 -9.84,29.21 -19.16,59.34 -27.66,89.46 -2.33,8.29 2.47,16.79 10.73,19.12z"/>
   <path class="fil0" d="M1436.65 3481.54c8.54,-1.1 14.47,-8.86 13.44,-17.29 -3.84,-30.34 -6.95,-61.14 -9.24,-91.58 -0.63,-8.54 -8.32,-15.06 -16.58,-14.32 -8.5,0.7 -14.96,8.08 -14.32,16.61 2.33,30.98 5.54,62.27 9.42,93.14 0.98,7.83 7.65,13.54 15.34,13.54 0.64,0 1.34,-0.03 1.94,-0.1z"/>
   <path class="fil0" d="M1423.88 3110.84c0.36,0.03 0.74,0.03 1.13,0.03 8.04,0 14.82,-6.17 15.45,-14.35 2.23,-30.66 5.22,-61.46 8.96,-91.59 1.06,-8.5 -4.97,-16.22 -13.44,-17.28 -8.43,-1.17 -16.22,4.97 -17.25,13.47 -3.81,30.63 -6.91,61.99 -9.17,93.17 -0.64,8.54 5.79,15.95 14.32,16.55z"/>
   <path class="fil0" d="M4250.59 4779.66c-25.83,16.46 -52.36,32.38 -78.78,47.4 -7.44,4.21 -10.09,13.66 -5.82,21.07 2.86,5.04 8.04,7.87 13.44,7.87 2.61,0 5.26,-0.63 7.66,-2.01 26.84,-15.28 53.83,-31.48 80.15,-48.23 7.19,-4.59 9.31,-14.12 4.72,-21.35 -4.55,-7.22 -14.21,-9.34 -21.37,-4.75z"/>
   <path class="fil0" d="M3200.47 5063.57c-30.27,-1.1 -61.17,-2.96 -91.86,-5.61 -8.26,-0.4 -16.02,5.57 -16.76,14.08 -0.74,8.54 5.58,16.05 14.11,16.79 31.15,2.68 62.62,4.58 93.45,5.71 0.18,0 0.36,0 0.57,0 8.29,0 15.13,-6.59 15.45,-14.95 0.32,-8.55 -6.35,-15.7 -14.96,-16.02z"/>
   <path class="fil0" d="M3653.09 1439.59c29.98,6.42 60.14,13.65 89.6,21.52 1.31,0.32 2.68,0.49 3.99,0.49 6.84,0 13.09,-4.58 14.96,-11.5 2.18,-8.22 -2.76,-16.72 -11.01,-18.94 -29.95,-7.98 -60.61,-15.31 -91.05,-21.87 -8.43,-1.66 -16.58,3.59 -18.35,11.92 -1.8,8.36 3.49,16.61 11.86,18.38z"/>
   <path class="fil0" d="M3471.37 1410.24c30.27,3.35 60.99,7.51 91.23,12.38 0.81,0.14 1.69,0.21 2.47,0.21 7.48,0 14.04,-5.43 15.27,-13.05 1.34,-8.47 -4.37,-16.37 -12.84,-17.71 -30.69,-4.97 -61.91,-9.21 -92.74,-12.63 -8.47,-0.92 -16.16,5.19 -17.11,13.72 -0.92,8.47 5.22,16.13 13.72,17.08z"/>
   <path class="fil0" d="M2100.86 4644.92c-6.52,-5.49 -16.26,-4.5 -21.8,2.09 -5.43,6.6 -4.51,16.37 2.12,21.8 24.02,19.89 48.82,39.37 73.62,57.86 2.79,2.11 6.04,3.1 9.25,3.1 4.72,0 9.38,-2.19 12.41,-6.24 5.12,-6.85 3.71,-16.55 -3.17,-21.66 -24.34,-18.21 -48.76,-37.41 -72.43,-56.95z"/>
   <path class="fil0" d="M2326.32 4804.53c-25.96,-15.6 -52.14,-32.22 -77.82,-49.43 -6.95,-4.73 -16.65,-2.85 -21.45,4.23 -4.8,7.1 -2.86,16.76 4.24,21.46 26.07,17.53 52.7,34.42 79.12,50.27 2.47,1.51 5.22,2.22 7.94,2.22 5.26,0 10.37,-2.72 13.27,-7.51 4.44,-7.35 2.04,-16.87 -5.3,-21.24z"/>
   <path class="fil0" d="M2737.98 1476.31c1.48,0 2.96,-0.17 4.44,-0.6 29.53,-8.82 59.41,-16.97 88.87,-24.16 8.29,-2.01 13.37,-10.41 11.36,-18.73 -2.05,-8.26 -10.37,-13.41 -18.73,-11.33 -29.95,7.34 -60.33,15.56 -90.35,24.52 -8.18,2.43 -12.84,11.08 -10.44,19.26 2.04,6.74 8.18,11.04 14.85,11.04z"/>
   <path class="fil0" d="M2836.19 5013.58c-29.7,-7.17 -59.58,-15.24 -88.83,-23.92 -8.29,-2.36 -16.86,2.3 -19.26,10.44 -2.47,8.23 2.19,16.82 10.41,19.27 29.77,8.86 60.22,17 90.45,24.3 1.2,0.28 2.44,0.43 3.63,0.43 6.99,0 13.34,-4.77 15.03,-11.86 2.01,-8.28 -3.07,-16.65 -11.43,-18.66z"/>
   <path class="fil0" d="M3017.13 5047.77c-29.98,-4.16 -60.6,-9.14 -90.91,-14.82 -8.04,-1.53 -16.51,3.92 -18.06,12.35 -1.59,8.42 3.99,16.51 12.38,18.09 30.76,5.75 61.88,10.86 92.36,15.02 0.71,0.09 1.41,0.16 2.15,0.16 7.55,0 14.22,-5.61 15.28,-13.39 1.16,-8.45 -4.77,-16.28 -13.2,-17.41z"/>
   <path class="fil0" d="M2918.32 1432.22c0.99,0 1.98,-0.11 2.93,-0.25 29.67,-5.72 60.22,-10.8 90.87,-15.06 8.47,-1.2 14.36,-9.04 13.16,-17.5 -1.23,-8.5 -9.31,-14.25 -17.5,-13.16 -31.11,4.37 -62.16,9.49 -92.35,15.27 -8.4,1.59 -13.87,9.74 -12.28,18.14 1.41,7.44 7.9,12.56 15.17,12.56z"/>
   <path class="fil0" d="M4400.73 4673.26c-23.78,18.72 -48.58,37.25 -73.77,55.13 -6.95,4.95 -8.61,14.61 -3.67,21.56 3,4.27 7.8,6.55 12.63,6.55 3.14,0 6.28,-0.97 8.96,-2.87 25.58,-18.14 50.8,-36.98 74.97,-55.99 6.74,-5.3 7.86,-15.04 2.61,-21.74 -5.26,-6.78 -15.1,-7.87 -21.73,-2.64z"/>
   <path class="fil0" d="M4975.79 3941.28c-7.94,-3.35 -17,0.31 -20.35,8.18 -11.89,27.98 -24.81,56.2 -38.28,83.93 -3.71,7.72 -0.5,16.93 7.2,20.71 2.15,1.05 4.48,1.55 6.73,1.55 5.72,0 11.26,-3.21 13.97,-8.72 13.66,-28.18 26.74,-56.9 38.88,-85.3 3.35,-7.9 -0.32,-17 -8.15,-20.35z"/>
   <path class="fil0" d="M4665.63 4418.2c-19.79,23.28 -40.47,46.39 -61.42,68.65 -5.86,6.24 -5.54,16.01 0.67,21.91 3,2.79 6.81,4.19 10.65,4.19 4.1,0 8.19,-1.63 11.26,-4.86 21.34,-22.66 42.3,-46.15 62.44,-69.85 5.5,-6.5 4.69,-16.3 -1.8,-21.81 -6.53,-5.54 -16.26,-4.76 -21.8,1.77z"/>
   <path class="fil0" d="M4967.85 2519.76c2.05,0 4.1,-0.39 6.11,-1.27 7.86,-3.35 11.5,-12.45 8.11,-20.36 -12.24,-28.61 -25.36,-57.18 -38.95,-84.91 -3.77,-7.73 -13.08,-10.83 -20.74,-7.13 -7.69,3.78 -10.87,13.06 -7.09,20.75 13.37,27.23 26.28,55.35 38.31,83.54 2.54,5.85 8.26,9.38 14.25,9.38z"/>
   <path class="fil0" d="M4398.01 1788.59c2.86,2.19 6.17,3.28 9.56,3.28 4.55,0 9.14,-2.01 12.21,-5.92 5.22,-6.74 4.09,-16.44 -2.65,-21.74 -24.38,-19.12 -49.67,-37.95 -75.14,-55.95 -6.88,-4.9 -16.58,-3.31 -21.59,3.71 -4.9,6.98 -3.25,16.65 3.74,21.55 25.05,17.71 49.88,36.23 73.87,55.07z"/>
   <path class="fil0" d="M3830.96 1487.07c28.78,9.32 58.1,19.58 87.13,30.55 1.8,0.67 3.67,1.03 5.47,1.03 6.24,0 12.17,-3.85 14.5,-10.06 3.03,-8.01 -1.06,-16.93 -9,-19.93 -29.49,-11.11 -59.33,-21.59 -88.61,-31.04 -8.08,-2.61 -16.83,1.87 -19.48,9.98 -2.61,8.15 1.87,16.86 9.99,19.47z"/>
   <path class="fil0" d="M5079.9 2951.66c4.65,30.24 8.57,60.93 11.67,91.3 0.78,7.98 7.52,13.9 15.35,13.9 0.56,0 1.06,-0.03 1.59,-0.1 8.53,-0.85 14.71,-8.43 13.82,-16.94 -3.1,-30.86 -7.09,-62.12 -11.85,-92.88 -1.27,-8.47 -9.24,-14.11 -17.64,-12.95 -8.43,1.31 -14.25,9.17 -12.94,17.67z"/>
   <path class="fil0" d="M4539.51 4552.36c-22.15,21.31 -44.98,42.27 -67.87,62.19 -6.46,5.61 -7.17,15.42 -1.52,21.87 3.07,3.5 7.34,5.29 11.68,5.29 3.56,0 7.23,-1.22 10.16,-3.8 23.31,-20.28 46.53,-41.56 69.03,-63.22 6.18,-5.93 6.32,-15.77 0.43,-21.91 -5.96,-6.18 -15.74,-6.27 -21.91,-0.42z"/>
   <path class="fil0" d="M4775.69 2189.03c3,4.37 7.84,6.67 12.74,6.67 3.03,0 6.1,-0.85 8.78,-2.72 7.06,-4.9 8.82,-14.53 3.92,-21.55 -17.57,-25.37 -36.12,-50.8 -55.17,-75.53 -5.23,-6.81 -14.96,-8.05 -21.7,-2.86 -6.81,5.22 -8.04,14.96 -2.82,21.73 18.73,24.31 36.97,49.32 54.25,74.26z"/>
   <path class="fil0" d="M1951.53 1950.48c3.95,0 8.01,-1.55 11.04,-4.66 21.21,-21.55 43.5,-43.1 66.19,-63.95 6.35,-5.79 6.73,-15.56 0.98,-21.88 -5.78,-6.24 -15.62,-6.66 -21.87,-0.91 -23.14,21.23 -45.79,43.14 -67.38,65.05 -6,6.07 -5.93,15.87 0.14,21.91 3,2.96 6.95,4.44 10.9,4.44z"/>
   <path class="fil0" d="M4090.71 4870.38c-27.2,13.69 -55.18,26.89 -83.15,39.27 -7.8,3.43 -11.36,12.56 -7.87,20.39 2.54,5.79 8.22,9.21 14.15,9.21 2.08,0 4.23,-0.39 6.24,-1.34 28.43,-12.53 56.9,-25.96 84.53,-39.87 7.65,-3.84 10.72,-13.12 6.87,-20.74 -3.81,-7.73 -13.19,-10.79 -20.77,-6.92z"/>
   <path class="fil0" d="M3384.66 5061.2c-30.73,1.9 -61.67,3.07 -91.97,3.42 -8.57,0.11 -15.42,7.14 -15.31,15.71 0.07,8.5 6.98,15.27 15.48,15.27 0.04,0 0.11,0 0.18,0 30.83,-0.36 62.34,-1.56 93.56,-3.49 8.53,-0.53 15.06,-7.91 14.5,-16.41 -0.57,-8.57 -8.12,-15.38 -16.44,-14.5z"/>
   <path class="fil0" d="M1710.34 2236.97c2.61,1.7 5.57,2.51 8.46,2.51 5.05,0 10.02,-2.47 12.99,-7.02 16.68,-25.61 34.25,-51.12 52.21,-75.89 5.04,-6.95 3.53,-16.61 -3.42,-21.66 -6.92,-4.97 -16.55,-3.52 -21.59,3.43 -18.31,25.22 -36.16,51.15 -53.17,77.15 -4.65,7.23 -2.61,16.79 4.52,21.48z"/>
   <path class="fil0" d="M1827.99 2089.09c4.52,0 9,-1.94 12.06,-5.75 19.37,-23.99 39.41,-47.66 59.52,-70.28 5.71,-6.38 5.18,-16.19 -1.24,-21.87 -6.42,-5.71 -16.19,-5.08 -21.83,1.24 -20.5,23.03 -40.89,47.06 -60.61,71.5 -5.33,6.64 -4.27,16.37 2.4,21.77 2.82,2.29 6.28,3.39 9.7,3.39z"/>
   <path class="fil0" d="M4872.81 2345.2c2.83,5.16 8.08,8.01 13.52,8.01 2.57,0 5.15,-0.63 7.51,-1.94 7.48,-4.13 10.2,-13.58 6.03,-21.06 -15.06,-27.2 -31.01,-54.33 -47.34,-80.61 -4.52,-7.3 -14.08,-9.42 -21.31,-4.97 -7.27,4.51 -9.52,14.04 -5.01,21.31 16.09,25.85 31.79,52.52 46.6,79.26z"/>
   <path class="fil0" d="M2088.23 1824.86c3.5,0 6.99,-1.17 9.88,-3.57 23.64,-19.57 47.94,-38.77 72.25,-57 6.88,-5.12 8.26,-14.82 3.14,-21.7 -5.19,-6.81 -14.85,-8.18 -21.7,-3.1 -24.73,18.55 -49.46,38.02 -73.44,57.99 -6.6,5.47 -7.52,15.21 -2.05,21.8 3.07,3.71 7.48,5.58 11.92,5.58z"/>
   <path class="fil0" d="M1842.28 4383.41c-5.33,-6.66 -15.07,-7.72 -21.77,-2.29 -6.63,5.36 -7.69,15.1 -2.29,21.77 19.58,24.27 40,48.26 60.6,71.25 3.07,3.47 7.34,5.16 11.58,5.16 3.66,0 7.37,-1.27 10.3,-3.91 6.35,-5.72 6.91,-15.49 1.23,-21.84 -20.28,-22.72 -40.39,-46.29 -59.65,-70.14z"/>
   <path class="fil0" d="M1965.01 4520.61c-6.03,-6.08 -15.81,-6.17 -21.91,-0.15 -6.07,6.04 -6.14,15.85 -0.1,21.91 21.87,22.09 44.59,43.96 67.45,64.92 2.99,2.72 6.7,4.09 10.47,4.09 4.17,0 8.36,-1.69 11.43,-5.04 5.79,-6.32 5.3,-16.12 -0.95,-21.88 -22.58,-20.63 -44.91,-42.09 -66.39,-63.85z"/>
   <path class="fil0" d="M3747.52 5001.52c-29.56,8.01 -59.65,15.31 -89.46,21.76 -8.4,1.76 -13.69,10.02 -11.89,18.38 1.55,7.27 8.01,12.24 15.14,12.24 1.05,0 2.18,-0.14 3.28,-0.38 30.33,-6.54 60.96,-13.98 90.98,-22.1 8.25,-2.21 13.16,-10.75 10.9,-18.97 -2.19,-8.26 -10.73,-13.09 -18.95,-10.93z"/>
   <path class="fil0" d="M1733.9 4234.75c-4.69,-7.16 -14.32,-9.17 -21.41,-4.48 -7.16,4.66 -9.17,14.25 -4.48,21.38 16.93,25.97 34.85,51.82 53.2,77.01 2.96,4.17 7.69,6.39 12.49,6.39 3.17,0 6.38,-0.99 9.13,-2.97 6.88,-5.08 8.4,-14.74 3.39,-21.69 -18.06,-24.73 -35.63,-50.2 -52.32,-75.64z"/>
   <path class="fil0" d="M2488.99 4891.35c-27.69,-13.05 -55.42,-26.96 -82.41,-41.36 -7.48,-3.98 -16.9,-1.16 -20.95,6.4 -4.03,7.55 -1.17,16.89 6.38,20.94 27.45,14.65 55.63,28.79 83.82,42.02 2.15,0.99 4.38,1.49 6.6,1.49 5.82,0 11.36,-3.29 14,-8.89 3.67,-7.73 0.32,-16.94 -7.44,-20.6z"/>
   <path class="fil0" d="M2563 1538.47c2.01,0 3.99,-0.35 5.93,-1.16 28.29,-11.68 57.18,-22.79 85.97,-32.99 8.08,-2.85 12.28,-11.71 9.42,-19.75 -2.89,-8.08 -11.85,-12.35 -19.76,-9.46 -29.28,10.41 -58.7,21.7 -87.48,33.59 -7.91,3.28 -11.65,12.31 -8.37,20.25 2.44,5.96 8.22,9.52 14.29,9.52z"/>
   <path class="fil0" d="M1482.34 3645.47c-6.95,-30.02 -13.13,-60.36 -18.38,-90.17 -1.48,-8.46 -9.67,-13.93 -17.96,-12.56 -8.43,1.49 -14,9.53 -12.56,17.93 5.4,30.37 11.72,61.24 18.7,91.75 1.69,7.16 8.01,12 15.1,12 1.16,0 2.29,-0.11 3.46,-0.39 8.32,-1.94 13.54,-10.23 11.64,-18.56z"/>
   <path class="fil0" d="M1421.06 3296.51c8.57,-0.25 15.31,-7.34 15.1,-15.88 -0.42,-16.16 -0.64,-32.38 -0.64,-48.65 0,-14.53 0.18,-29.03 0.53,-43.46 0.18,-8.61 -6.63,-15.66 -15.13,-15.88 -8.47,0.15 -15.66,6.6 -15.84,15.14 -0.35,14.67 -0.53,29.42 -0.53,44.2 0,16.51 0.21,33.02 0.64,49.43 0.21,8.43 7.09,15.1 15.48,15.1 0.11,0 0.28,0 0.39,0z"/>
   <path class="fil0" d="M3567.61 5040.49c-30.59,5.02 -61.28,9.25 -91.16,12.57 -8.54,0.95 -14.61,8.6 -13.69,17.1 0.85,7.94 7.59,13.77 15.35,13.77 0.56,0 1.2,0 1.76,-0.07 30.48,-3.46 61.63,-7.73 92.75,-12.82 8.43,-1.4 14.18,-9.38 12.77,-17.8 -1.41,-8.44 -9.49,-14.2 -17.78,-12.75z"/>
   <path class="fil0" d="M5082.93 3585.78c-8.5,-1.73 -16.58,3.78 -18.27,12.1 -6.04,29.74 -12.92,59.94 -20.57,89.79 -2.08,8.25 2.89,16.72 11.18,18.83 1.31,0.32 2.58,0.5 3.85,0.5 6.91,0 13.23,-4.69 14.99,-11.64 7.73,-30.38 14.78,-61.11 20.88,-91.3 1.7,-8.36 -3.7,-16.58 -12.06,-18.28z"/>
   <path class="fil0" d="M4003.53 1552.55c28.23,12.35 56.34,25.47 83.47,39.09 2.22,1.12 4.59,1.65 6.95,1.65 5.65,0 11.11,-3.14 13.83,-8.57 3.85,-7.65 0.74,-16.93 -6.91,-20.78 -27.63,-13.83 -56.24,-27.23 -84.95,-39.79 -7.69,-3.35 -16.94,0.11 -20.39,7.97 -3.39,7.83 0.14,16.97 8,20.43z"/>
   <path class="fil0" d="M4537.18 1909.28c3,2.89 6.81,4.34 10.73,4.34 4.05,0 8.11,-1.63 11.14,-4.8 5.93,-6.18 5.72,-15.98 -0.45,-21.87 -22.51,-21.59 -45.8,-42.87 -69.22,-63.15 -6.46,-5.54 -16.19,-4.94 -21.84,1.59 -5.57,6.45 -4.86,16.22 1.59,21.83 23,19.9 45.9,40.82 68.05,62.06z"/>
   <path class="fil0" d="M1542.7 2568.37c1.87,0.78 3.77,1.1 5.68,1.1 6.17,0 11.99,-3.74 14.39,-9.81 11.11,-28.19 23.25,-56.76 36.02,-84.92 3.56,-7.83 0.11,-16.93 -7.69,-20.49 -7.76,-3.49 -16.97,-0.07 -20.5,7.69 -13.01,28.61 -25.33,57.71 -36.62,86.36 -3.17,7.97 0.78,16.97 8.72,20.07z"/>
   <path class="fil0" d="M5042.78 2771.29c7.76,29.88 14.75,60.04 20.82,89.68 1.51,7.33 7.93,12.38 15.17,12.38 1.02,0 2.04,-0.07 3.1,-0.32 8.4,-1.73 13.76,-9.88 12.07,-18.27 -6.21,-30.17 -13.3,-60.86 -21.14,-91.2 -2.18,-8.29 -10.54,-13.23 -18.9,-11.14 -8.29,2.15 -13.27,10.61 -11.12,18.87z"/>
   <path class="fil0" d="M5109 3401.99c-8.4,-0.85 -16.09,5.36 -16.93,13.86 -3.04,30.55 -6.88,61.28 -11.43,91.4 -1.27,8.44 4.55,16.34 12.98,17.61 0.81,0.1 1.55,0.17 2.36,0.17 7.52,0 14.11,-5.53 15.24,-13.19 4.66,-30.59 8.57,-61.84 11.64,-92.89 0.89,-8.53 -5.36,-16.08 -13.86,-16.96z"/>
   <path class="fil0" d="M1564.57 3908.93c-3.17,-7.94 -12.21,-11.71 -20.11,-8.68 -7.97,3.21 -11.82,12.21 -8.68,20.14 11.61,29.07 23.96,57.96 36.69,85.9 2.61,5.68 8.22,9.04 14.08,9.04 2.19,0 4.37,-0.46 6.45,-1.38 7.8,-3.6 11.19,-12.74 7.66,-20.53 -12.59,-27.45 -24.69,-55.88 -36.09,-84.49z"/>
   <path class="fil0" d="M4777.74 4271.97c-17.29,25.08 -35.52,50.17 -54.22,74.51 -5.19,6.81 -3.92,16.54 2.86,21.73 2.78,2.19 6.13,3.21 9.42,3.21 4.65,0 9.24,-2.12 12.31,-6.07 19.01,-24.8 37.53,-50.27 55.14,-75.78 4.83,-7.02 3.07,-16.65 -3.95,-21.51 -7.06,-4.94 -16.69,-3.14 -21.56,3.91z"/>
   <path class="fil0" d="M3922.57 4944.61c-28.47,10.87 -57.64,21.16 -86.78,30.66 -8.11,2.6 -12.56,11.35 -9.95,19.51 2.12,6.52 8.19,10.65 14.75,10.65 1.58,0 3.21,-0.22 4.79,-0.74 29.6,-9.59 59.31,-20.08 88.3,-31.18 7.98,-3.08 11.93,-12.03 8.89,-20.01 -3.03,-8.01 -12.06,-11.92 -20,-8.89z"/>
   <path class="fil0" d="M2659.63 4961.3c-28.89,-10.16 -57.93,-21.17 -86.22,-32.82 -7.8,-3.21 -16.93,0.54 -20.18,8.48 -3.25,7.9 0.53,16.96 8.47,20.21 28.75,11.79 58.24,23.03 87.66,33.37 1.7,0.56 3.46,0.85 5.15,0.85 6.35,0 12.35,-3.98 14.61,-10.34 2.82,-8.04 -1.41,-16.89 -9.49,-19.75z"/>
   <path class="fil0" d="M4588.37 4006.12c5.54,0 10.65,-2.97 13.41,-7.73 2.78,-4.8 2.78,-10.72 0,-15.49l-60.15 -104.17 133.03 8.64 140.79 226.17 -266.34 3.1 -81.21 -110.52 120.47 0zm-222.46 -138.82l138.57 9 57.08 98.84 -116.35 0 -79.3 -107.84zm-623.96 107.84l409.79 -709.79 334.11 578.7 -147.63 -9.59c-3.5,-1.13 -7.06,-0.5 -10.41,0.91 -2.22,0.99 -4.45,2.05 -6.07,4.06 -2.72,3.14 -3.81,7.16 -3.53,11.04 0,0.04 0,0.04 0,0.04 0.21,3.53 1.7,6.95 4.06,9.66l84.45 114.97 -664.77 0zm-35.81 0l-877.36 0 -65.12 -112.85 -362.51 -627.91 73.73 -127.7 353.94 -613.1 877.29 0 136.59 236.54 291.12 504.3 -256.19 443.79 -171.49 296.93zm-355.07 615.1l-67.8 -145.48c-1.1,-5.78 -5.68,-10.44 -11.64,-11.92 -4.02,-0.92 -8.15,-0.21 -11.61,1.87 -3.25,1.83 -5.71,4.94 -7.02,8.5l-68.79 147.6 -337.54 -584.69 841.62 0 -337.22 584.12zm-147.88 33.34l64.63 -138.74 64.34 138.17 -64.66 111.98 -64.31 -111.41zm195.26 141.74l-130.63 232.06 -130.71 -232.06 50.06 -107.48 66.92 115.89c2.76,4.79 7.87,7.76 13.41,7.76 5.5,0 10.65,-2.97 13.4,-7.76l67.24 -116.46 50.31 108.05zm-1270.21 -790.18l83.36 -113.48c4.52,-3.74 6.46,-9.88 4.97,-15.77 -1.72,-6.92 -8.25,-11.75 -15.38,-11.75l0 0.03c-0.81,-0.31 -1.76,0 -2.68,0.14l-149.33 9.74 334.08 -578.7 409.82 709.79 -664.84 0zm-38.45 0l-116.31 0 57.04 -98.84 138.54 -9 -79.27 107.84zm-103.86 141.5l-266.35 -3.1 140.76 -226.17 133.03 -8.64 -60.15 104.17c-2.75,4.8 -2.75,10.69 0,15.49 2.79,4.76 7.91,7.73 13.41,7.73l120.44 0 -81.14 110.52zm63.32 -1491.86l147.36 9.6c1.23,0.35 2.5,0.6 3.77,0.7 0.6,0.11 1.27,0.14 1.87,0.14 5.01,0 9.28,-2.5 12.07,-6.21 0.42,-0.45 0.7,-0.95 1.02,-1.48 0.46,-0.81 0.99,-1.58 1.38,-2.5 0.7,-1.84 1.23,-3.74 1.23,-5.82 0,-5.47 -2.82,-10.27 -7.09,-13.02l-82.66 -112.61 664.81 0 -342.86 594.05 -66.89 115.78 -334.01 -578.63zm-75.77 -131.2l116.31 0 79.23 107.95 -138.43 -9.03 -57.11 -98.92zm-113.14 87.88l-140.76 -226.2 266.35 -3.11 81.1 110.46 -120.4 0c-5.5,0 -10.62,2.96 -13.41,7.76 -2.75,4.76 -2.75,10.69 0,15.49l60.15 104.24 -133.03 -8.64zm1323.59 -702.84l67.8 145.49c1.13,5.89 5.82,10.54 11.89,11.96 1.13,0.21 2.19,0.31 3.24,0.31 2.33,0 4.59,-0.53 6.64,-1.51 3.95,-1.7 6.98,-5.15 8.46,-9.21l68.76 -147.64 337.54 584.59 -841.52 0 337.19 -583.99zm147.92 -33.34l-64.63 138.72 -64.35 -138.19 64.63 -111.97 64.35 111.44zm-195.58 -142.24l131.3 -268.04 130.56 268.01 -50.34 108.02 -9.77 -17.01 -70.52 -122.13 -80.65 139.7 -50.58 -108.55zm1270.49 790.54l-83.47 113.67c-4.76,3.98 -6.56,10.65 -4.51,16.79 0.98,3 2.85,5.5 5.25,7.34 2.76,2.19 6.28,3.31 9.81,3.31 0.95,0 1.87,-0.1 2.79,-0.24l149.19 -9.67 -334.08 578.63 -291.93 -505.6 -117.9 -204.23 664.85 0zm38.49 0l116.31 0 -57.15 98.92 -138.5 9.03 79.34 -107.95zm103.86 -141.43l266.34 3.14 -140.79 226.17 -132.96 8.64 60.11 -104.24c2.75,-4.8 2.75,-10.73 -0.03,-15.49 -2.76,-4.8 -7.87,-7.76 -13.41,-7.76l-120.4 0 81.14 -110.46zm-7.8 1795.57c0.07,0 0.14,0 0.21,0l298.24 -3.49c0.78,0.18 1.55,0.28 2.33,0.32 6.49,0.84 12.63,-2.65 15.56,-8.01 1.34,-2.29 2.11,-4.97 2.11,-7.83 0,-5.01 -2.4,-9.46 -6.07,-12.28l-156.91 -252.16c-2.65,-4.27 -7.16,-6.95 -12.14,-7.27l-161.64 -10.55 -353.41 -612.07 353.37 -612.03 161.68 -10.52c4.98,-0.35 9.49,-3.03 12.14,-7.26l157.73 -253.44c3.84,-3.88 5.29,-9.66 3.77,-15.17 -0.95,-3.35 -2.96,-6.14 -5.64,-8.15 -3.11,-2.43 -7.13,-3.56 -11.15,-3.17l-299.97 -3.53c-4.8,-0.35 -9.7,2.29 -12.66,6.28l-99.35 135.22 -705.48 0 -357.33 -618.84 62.62 -134.34c1.94,-4.23 1.9,-9.14 -0.14,-13.34l-145.03 -297.6c1.16,0.28 2.22,0.74 3.46,0.74 30.48,0.35 61.45,1.38 92,3.21 0.28,0.04 0.6,0.04 0.92,0.04 8.11,0 14.96,-6.35 15.45,-14.57 0.53,-8.58 -6.03,-15.88 -14.57,-16.37 -31.01,-1.87 -62.48,-2.93 -93.52,-3.28 -0.04,0 -0.07,0 -0.14,0 -8.47,0 -15.42,6.84 -15.49,15.31 0,0.77 0.28,1.44 0.43,2.18 -1.66,-0.63 -3.29,-1.48 -5.08,-1.48 -0.04,0 -0.04,0 -0.04,0 -5.89,0 -11.32,3.39 -13.9,8.68l-148.45 303.14c-2.04,4.2 -2.08,9.11 -0.14,13.34l62.87 134.87 -356.98 618.31 -705.52 0 -99.24 -135.22c-2.96,-3.99 -8.32,-6.92 -12.7,-6.28l-298.38 3.49c-5.04,-1.2 -10.19,0.39 -14.04,4.06 -2.43,2.36 -3.98,5.43 -4.51,8.68 -0.85,4.41 0.42,8.96 3.1,12.49l158.54 254.74c2.68,4.23 7.16,6.91 12.17,7.26l161.68 10.52 353.31 612.03 -353.35 612.07 -161.64 10.55c-5.01,0.32 -9.49,3 -12.17,7.23l-157.66 253.33c-3.84,3.81 -5.36,9.53 -3.95,15.03 0.85,3.24 2.75,6.07 5.33,8.11 3.28,2.82 7.62,3.81 11.71,3.53l299.86 3.49c0.07,0 0.11,0 0.18,0 4.94,0 9.56,-2.36 12.52,-6.35l99.31 -135.25 705.41 0 357.37 618.97 -62.58 134.39c-2.16,4.48 -1.94,9.73 0.49,14.1l146.33 259.85c1.45,5.23 5.68,9.36 11.15,10.77 1.27,0.35 2.54,0.5 3.81,0.5 2.22,0 4.41,-0.5 6.42,-1.41 3.74,-1.6 6.67,-4.7 8.25,-8.41l147.18 -261.3c2.44,-4.37 2.65,-9.62 0.53,-14.1l-62.86 -134.95 357.04 -618.41 705.38 0 99.42 135.25c2.92,4.02 7.55,6.35 12.45,6.35z"/>
   <path class="fil0" d="M2818.66 2729.13c-5.79,-6.31 -15.59,-6.52 -21.84,-0.67 -22.79,21.31 -44.31,44.42 -63.99,68.76 -5.4,6.6 -4.38,16.4 2.29,21.77 2.86,2.32 6.32,3.45 9.74,3.45 4.48,0 8.96,-1.97 12.03,-5.75 18.8,-23.21 39.33,-45.29 61.1,-65.69 6.21,-5.85 6.56,-15.62 0.67,-21.87z"/>
   <path class="fil0" d="M2635 3408.86c-2.29,-8.21 -10.72,-12.94 -19.12,-10.68 -8.22,2.29 -13.01,10.86 -10.72,19.08 8.47,30.02 19.08,59.8 31.61,88.44 2.54,5.82 8.22,9.25 14.18,9.25 2.12,0 4.16,-0.39 6.21,-1.27 7.83,-3.39 11.39,-12.56 8.01,-20.4 -11.96,-27.3 -22.12,-55.77 -30.17,-84.42z"/>
   <path class="fil0" d="M3850.85 3566.63c-7.23,-4.45 -16.82,-2.15 -21.27,5.18 -15.49,25.4 -32.91,50.1 -51.75,73.24 -5.47,6.6 -4.41,16.37 2.22,21.77 2.86,2.36 6.31,3.49 9.74,3.49 4.48,0 8.96,-1.94 12.03,-5.72 19.75,-24.23 37.99,-50.02 54.18,-76.69 4.48,-7.3 2.19,-16.83 -5.15,-21.27z"/>
   <path class="fil0" d="M3918.76 3138.35c1.1,7.73 7.69,13.34 15.28,13.34 0.74,0 1.44,-0.04 2.18,-0.14 8.47,-1.2 14.36,-9.03 13.2,-17.46 -4.34,-31.01 -10.87,-61.92 -19.37,-91.9 -2.29,-8.22 -10.83,-12.98 -19.12,-10.69 -8.22,2.4 -13.02,10.93 -10.69,19.15 8.15,28.61 14.39,58.14 18.52,87.7z"/>
   <path class="fil0" d="M3869.9 2966.31c2.58,5.78 8.22,9.2 14.18,9.2 2.12,0 4.2,-0.39 6.25,-1.27 7.83,-3.45 11.36,-12.59 7.97,-20.42 -12.56,-28.44 -27.2,-56.41 -43.57,-83.12 -4.44,-7.3 -13.97,-9.59 -21.27,-5.08 -7.3,4.45 -9.59,14.01 -5.11,21.27 15.66,25.48 29.63,52.22 41.55,79.42z"/>
   <path class="fil0" d="M3568.42 2645.67c26.49,13.68 52.28,29.28 76.76,46.46 2.72,1.9 5.82,2.78 8.93,2.78 4.83,0 9.63,-2.29 12.63,-6.56 4.94,-6.98 3.24,-16.68 -3.74,-21.59 -25.61,-17.92 -52.64,-34.29 -80.4,-48.61 -7.51,-3.95 -16.9,-0.95 -20.81,6.67 -3.99,7.62 -0.99,16.97 6.63,20.85z"/>
   <path class="fil0" d="M2878.42 2697.1c3.11,0 6.28,-0.95 9,-2.86 24.3,-17.25 49.99,-33.05 76.41,-46.81 7.58,-3.99 10.51,-13.3 6.56,-20.89 -3.95,-7.61 -13.3,-10.44 -20.88,-6.59 -27.66,14.46 -54.58,30.94 -80.05,49.07 -6.98,4.97 -8.61,14.6 -3.63,21.59 3.03,4.23 7.76,6.49 12.59,6.49z"/>
   <path class="fil0" d="M3570.64 3813.92c-26.56,13.83 -54.26,25.83 -82.23,35.81 -8.04,2.82 -12.24,11.68 -9.39,19.72 2.23,6.35 8.19,10.3 14.57,10.3 1.73,0 3.5,-0.28 5.16,-0.88 29.35,-10.41 58.34,-23 86.14,-37.53 7.59,-3.92 10.55,-13.27 6.6,-20.82 -3.99,-7.65 -13.37,-10.48 -20.85,-6.6z"/>
   <path class="fil0" d="M2819.68 3711.3c-6.21,-5.78 -16.05,-5.47 -21.83,0.74 -5.86,6.28 -5.51,16.05 0.77,21.87 22.79,21.35 47.35,41.24 72.85,59.24 2.72,1.97 5.82,2.85 8.93,2.85 4.83,0 9.66,-2.25 12.66,-6.56 4.9,-6.98 3.25,-16.61 -3.74,-21.55 -24.38,-17.22 -47.76,-36.23 -69.64,-56.59z"/>
   <path class="fil0" d="M3402.12 3873.93c-29.07,6.07 -58.99,10.16 -88.79,12.21 -8.58,0.6 -15,7.97 -14.43,16.51 0.6,8.15 7.37,14.43 15.41,14.43 0.39,0 0.74,0 1.1,-0.04 31.29,-2.19 62.58,-6.45 92.99,-12.77 8.36,-1.76 13.79,-9.98 12.03,-18.34 -1.77,-8.4 -10.06,-13.9 -18.31,-12z"/>
   <path class="fil0" d="M3716.59 3710.56c-21.77,20.39 -45.16,39.48 -69.47,56.69 -7.02,4.94 -8.64,14.61 -3.7,21.59 3,4.27 7.8,6.53 12.63,6.53 3.1,0 6.21,-0.95 8.92,-2.82 25.51,-18.07 49.99,-38.03 72.78,-59.34 6.25,-5.86 6.56,-15.63 0.71,-21.91 -5.86,-6.24 -15.6,-6.53 -21.87,-0.74z"/>
   <path class="fil0" d="M3223.61 3886.21c-29.81,-1.98 -59.72,-6 -88.86,-12 -8.29,-1.69 -16.58,3.67 -18.27,12.07 -1.7,8.36 3.66,16.58 12.02,18.27 30.56,6.28 61.85,10.48 93.03,12.56 0.39,0.04 0.74,0.04 1.06,0.04 8.08,0 14.89,-6.25 15.45,-14.43 0.53,-8.57 -5.89,-15.95 -14.43,-16.51z"/>
   <path class="fil0" d="M3040.7 2612.36c1.73,0 3.53,-0.31 5.25,-0.91 28.12,-10.13 57.19,-18.28 86.26,-24.38 8.4,-1.76 13.72,-9.98 11.99,-18.35 -1.73,-8.36 -9.87,-13.86 -18.34,-11.95 -30.48,6.38 -60.89,14.95 -90.38,25.5 -8.05,2.89 -12.21,11.78 -9.35,19.83 2.26,6.31 8.22,10.26 14.57,10.26z"/>
   <path class="fil0" d="M2598.91 3155.39c0.71,0.15 1.42,0.18 2.09,0.18 7.62,0 14.25,-5.64 15.31,-13.44 3.98,-29.67 10.05,-59.23 17.99,-87.81 2.26,-8.29 -2.58,-16.79 -10.8,-19.05 -8.29,-2.4 -16.79,2.54 -19.05,10.73 -8.29,30.02 -14.67,60.96 -18.8,92.04 -1.16,8.43 4.8,16.26 13.26,17.35z"/>
   <path class="fil0" d="M2616.66 3321.09c-4.13,-29.49 -6.17,-59.55 -6.24,-89.46 -0.04,-8.5 -6.95,-15.42 -15.49,-15.42l-0.04 0c-8.57,0.04 -15.48,6.95 -15.45,15.49 0.07,31.29 2.26,62.76 6.53,93.63 1.06,7.72 7.72,13.37 15.31,13.37 0.74,0 1.41,-0.07 2.15,-0.18 8.47,-1.16 14.39,-8.92 13.23,-17.43z"/>
   <path class="fil0" d="M3399.58 2586.26c29.32,5.96 58.42,14.04 86.5,23.92 1.69,0.6 3.46,0.84 5.15,0.84 6.35,0 12.35,-3.95 14.61,-10.33 2.82,-8.05 -1.42,-16.9 -9.49,-19.72 -29.39,-10.34 -59.87,-18.77 -90.6,-25.05 -8.29,-1.73 -16.54,3.67 -18.27,12.1 -1.69,8.36 3.74,16.51 12.1,18.24z"/>
   <path class="fil0" d="M3925.11 3230.36c0,29.91 -2.01,59.97 -6.03,89.46 -1.2,8.47 4.76,16.27 13.23,17.43 0.7,0.11 1.45,0.14 2.15,0.14 7.62,0 14.22,-5.61 15.31,-13.4 4.2,-30.84 6.32,-62.34 6.32,-93.63l0 -2.61c0,-8.54 -6.92,-14.18 -15.46,-14.18 -8.57,0 -15.52,8.22 -15.52,16.79z"/>
   <path class="fil0" d="M2706.55 3572.73c-4.48,-7.3 -14.01,-9.6 -21.28,-5.12 -7.26,4.45 -9.59,13.97 -5.15,21.28 16.27,26.6 34.58,52.38 54.33,76.55 3.04,3.77 7.48,5.68 11.96,5.68 3.46,0 6.95,-1.13 9.84,-3.46 6.6,-5.43 7.55,-15.17 2.16,-21.8 -18.88,-23.11 -36.31,-47.73 -51.86,-73.13z"/>
   <path class="fil0" d="M2643.75 2977.81c2.01,0.88 4.1,1.27 6.14,1.27 6,0 11.68,-3.5 14.22,-9.35 11.85,-27.41 25.72,-54.22 41.2,-79.66 4.41,-7.34 2.08,-16.86 -5.18,-21.31 -7.27,-4.37 -16.83,-2.11 -21.31,5.22 -16.19,26.67 -30.69,54.72 -43.11,83.47 -3.39,7.83 0.18,16.97 8.04,20.36z"/>
   <path class="fil0" d="M3048.28 3850.12c-28.15,-9.95 -55.81,-21.94 -82.26,-35.67 -7.59,-3.91 -16.94,-0.98 -20.92,6.64 -3.92,7.58 -0.96,16.93 6.66,20.88 27.73,14.36 56.69,26.95 86.19,37.39 1.73,0.6 3.45,0.85 5.15,0.85 6.42,0 12.38,-3.91 14.6,-10.3 2.9,-8.08 -1.37,-16.93 -9.42,-19.79z"/>
   <path class="fil0" d="M3219.87 2574.72c0.43,0 0.78,0 1.13,-0.03 15.07,-1.06 30.24,-1.63 45.55,-1.63 14.88,-0.21 29.52,0.46 44.13,1.38 7.8,0.74 15.91,-5.89 16.47,-14.46 0.53,-8.51 -5.92,-15.88 -14.46,-16.44 -14.89,-0.96 -29.84,-1.45 -44.87,-1.45 -17.08,-0.28 -32.81,0.56 -49,1.69 -8.51,0.64 -14.96,8.05 -14.36,16.55 0.56,8.15 7.41,14.39 15.41,14.39z"/>
   <path class="fil0" d="M3776.38 2813.87c3.04,3.74 7.44,5.68 11.93,5.68 3.49,0 6.98,-1.2 9.84,-3.53 6.59,-5.43 7.58,-15.2 2.15,-21.8 -19.83,-24.17 -41.49,-47.17 -64.35,-68.4 -6.21,-5.79 -16.01,-5.47 -21.87,0.84 -5.82,6.25 -5.47,16.05 0.81,21.88 21.84,20.24 42.48,42.22 61.49,65.33z"/>
   <path class="fil0" d="M3885.11 3513.78c5.96,0 11.67,-3.46 14.21,-9.28 12.42,-28.71 23.04,-58.52 31.47,-88.54 2.26,-8.26 -2.54,-16.83 -10.76,-19.09 -8.29,-2.36 -16.79,2.54 -19.08,10.72 -8.05,28.69 -18.17,57.15 -30.06,84.57 -3.39,7.83 0.21,16.93 8.04,20.35 1.98,0.88 4.1,1.27 6.18,1.27z"/>
   <path class="fil0" d="M3435.46 3363.11c4.23,-43.5 6.42,-88.27 6.42,-132.79 0,-45.54 -2.15,-90.06 -6.18,-132.78 179.67,22.82 295.17,80.08 295.21,132.78 0,52.71 -115.64,109.93 -295.45,132.79zm-31.26 3.6c-42.51,4.27 -88.09,6.77 -136.38,6.77 -46.96,0 -92.78,-2.29 -136.42,-6.6 -4.27,-42.58 -6.74,-88.19 -6.74,-136.52 0,-46.92 2.22,-92.75 6.53,-136.35 42.79,-4.3 88.61,-6.81 137.3,-6.81 48.08,0 93.48,2.47 135.89,6.74 4.3,43.64 6.52,89.46 6.52,136.38 0,48.3 -2.43,93.88 -6.7,136.39zm-136.38 326.67c-52.71,0 -109.89,-115.46 -132.75,-295.13 42.68,4.02 87.2,6.21 132.75,6.21 44.27,0 89.07,-2.12 132.71,-6.25 -22.79,179.67 -80.01,295.13 -132.71,295.17zm-97.51 -796.54c26.92,-81.14 63.36,-129.57 97.54,-129.57 34.12,0 70.56,48.4 97.44,129.54 15.8,47.76 27.69,104.21 35.42,165.7 -43.82,-4.13 -88.83,-6.25 -133.39,-6.25 -44.2,0 -88.9,2.12 -132.39,6.21 7.69,-61.45 19.54,-117.9 35.38,-165.63zm-236.08 430.99c-81.14,-26.92 -129.54,-63.29 -129.54,-97.44 0.07,-52.67 115.29,-109.85 295.17,-132.75 -3.99,42.69 -6.17,87.21 -6.17,132.72 0,44.34 2.15,89.18 6.28,132.89 -61.46,-7.76 -117.97,-19.61 -165.74,-35.42zm498.05 -261.79c-7.94,-66.4 -20.49,-127.46 -37.6,-178.97 -32.25,-97.19 -77.3,-150.78 -126.86,-150.78 -49.6,0 -94.69,53.59 -126.93,150.82 -17.04,51.47 -29.64,112.53 -37.57,178.85 -178.54,21.24 -329.5,77.3 -329.6,164.43 -0.04,49.53 53.51,94.58 150.81,126.83 51.47,17.04 112.61,29.63 178.89,37.53 21.31,178.69 77.33,329.57 164.4,329.57 84.1,0 141.95,-149.72 164,-329.6 178.86,-21.2 330.03,-77.26 330.03,-164.4 -0.04,-87.03 -150.67,-143.05 -329.57,-164.28z"/>
   <path class="fil0" d="M2742.18 2323.4l-436.46 -37.89 -120.15 -208.8 403.86 -5.68 226.09 -340.08 112.32 213.6 -185.66 378.85zm-169.55 -283.07l-440.19 6.14 154.55 268.5 473.67 41.1 201.9 -412.04 -143.94 -273.69 -245.99 369.99z"/>
   <path class="fil0" d="M4343.33 2097.2l-131.76 202.18 -421.32 22.54 -179.6 -399.52 123.68 -206.73 201.79 349.89 407.21 31.64zm-767.5 -176.88l194.87 433.67 458.26 -24.52 168.8 -259.08 -442.98 -34.5 -219.96 -381.39 -158.99 265.82z"/>
   <path class="fil0" d="M3940.14 4389.06l-226.09 339.97 -112.36 -213.57 185.63 -378.85 436.49 37.89 120.19 208.81 -403.86 5.75zm302.4 -244.05l-473.64 -41.07 -201.93 411.97 143.94 273.72 245.99 -369.85 440.19 -6.27 -154.55 -268.5z"/>
   <path class="fil0" d="M2317.96 4160.56l421.33 -22.43 179.59 399.56 -123.71 206.69 -201.83 -349.89 -407.14 -31.64 131.76 -202.29zm476.71 644.92l159.1 -265.75 -194.94 -433.67 -458.22 24.45 -168.84 259.11 442.87 34.54 220.03 381.32z"/>
   <path class="fil0" d="M1696.47 2887.28l241.37 2.54 245.26 343.22 -240.49 366.08 -240.81 6.7 186.69 -358.14 -192.02 -360.4zm263.14 742.32l261.02 -397.27 -262.18 -366.95 -4.59 -6.35 -309.28 -3.25 208.92 392.08 -203.56 390.38 309.67 -8.64z"/>
   <path class="fil0" d="M4822.79 3605.82l-240.81 -6.7 -240.45 -366.08 245.18 -343.22 241.41 -2.54 -191.98 360.4 186.65 358.14zm-252.09 -746.79l-266.74 373.3 261.02 397.27 309.6 8.64 -203.41 -390.38 208.88 -392.08 -309.35 3.25z"/>
   <path class="fil0" d="M6108.49 4498.88c0,8.75 1.13,17.21 2.54,25.54l-1125.61 449.9 -475.72 1108.88c-9.88,-1.97 -20.04,-3.1 -30.51,-3.1 -49.96,0 -93.91,24.73 -121.11,62.3l-1084.58 -475.93 -1172.5 461.23c-27.3,-29.15 -65.89,-47.6 -109,-47.6 -5.51,0 -10.66,1.06 -15.98,1.58l-462.36 -1143.74 -1115.66 -473.18c1.84,-9.24 2.9,-18.83 2.9,-28.68 0,-50.59 -25.26,-95.11 -63.71,-122.27l475.86 -1109.1 -450.04 -1113.43c36.65,-27.31 60.64,-70.6 60.64,-119.81 0,-11.46 -1.48,-22.47 -3.95,-33.12l1130.51 -451.88 475.65 -1108.71c9.49,1.87 19.23,2.97 29.32,2.97 50.8,0 95.6,-25.47 122.69,-64.21l1104.06 468.31 11.71 4.94 1137.99 -454.73c27.2,28.12 65.19,45.69 107.42,45.69 6.95,0 13.62,-1.13 20.36,-2.09l462.56 1144.24 1124.27 476.81c-7.38,17.71 -11.5,37.12 -11.5,57.47 0,45.83 21.02,86.33 53.41,113.81l-465.53 1085.14 452.05 1118.48c-39.93,26.89 -66.18,72.54 -66.18,124.29zm149.82 -149.83c-8.92,0 -17.56,1.13 -26.07,2.61l-442.56 -1094.81 453.22 -1056.43c13.33,3.89 27.09,6.6 41.66,6.6 82.8,0 149.86,-67.06 149.86,-149.86 0,-82.72 -67.06,-149.82 -149.86,-149.82 -39.48,0 -75.14,15.59 -101.88,40.57l-1112.91 -472.06 -451.98 -1118.02c42.55,-26.42 71.12,-73.2 71.12,-126.96 0,-82.73 -67.13,-149.83 -149.86,-149.83 -82.76,0 -149.86,67.1 -149.86,149.83 0,17.88 3.64,34.82 9.39,50.69l-1104.23 441.25 -1092.2 -463.26c1.79,-9.32 2.89,-18.84 2.89,-28.68 0,-82.73 -67.14,-149.83 -149.86,-149.83 -82.76,0 -149.9,67.1 -149.9,149.83 0,50.62 25.3,95.18 63.75,122.27l-465.63 1085.39 -1109.88 443.58c-27.3,-36.54 -70.55,-60.53 -119.73,-60.53 -82.69,0 -149.82,67.1 -149.82,149.89 0,82.73 67.13,149.83 149.82,149.83 11.36,0 22.3,-1.49 32.95,-3.88l439.21 1086.55 -465.56 1085.29c-9.53,-1.94 -19.33,-2.97 -29.35,-2.97 -82.76,0 -149.83,67.07 -149.83,149.79 0,82.8 67.07,149.89 149.83,149.89 50.87,0 95.67,-25.46 122.73,-64.2l1092.09 463.16 451.14 1116.02c-44.56,25.96 -74.86,73.72 -74.86,128.97 0,82.8 67.13,149.86 149.86,149.86 82.76,0 149.86,-67.06 149.86,-149.86 0,-17.01 -3.46,-33.09 -8.72,-48.33l1139.12 -448.06 1060.42 465.42c-2.12,9.98 -3.32,20.35 -3.32,30.97 0,82.8 67.13,149.86 149.83,149.86 82.79,0 149.89,-67.06 149.89,-149.86 0,-50.16 -24.94,-94.29 -62.79,-121.49l465.94 -1086.17 1101.48 -440.2c26.92,40.18 72.6,66.68 124.6,66.68 82.8,0 149.86,-67.03 149.86,-149.86 0,-82.73 -67.06,-149.83 -149.86,-149.83z"/>
  </g>
 </g>
</svg>
